<?xml version="1.0" encoding="utf-8"?>
<!-- Generator: Adobe Illustrator 27.5.0, SVG Export Plug-In . SVG Version: 6.00 Build 0)  -->
<svg version="1.1" xmlns="http://www.w3.org/2000/svg" xmlns:xlink="http://www.w3.org/1999/xlink" x="0px" y="0px"
	 viewBox="0 0 750 500" style="enable-background:new 0 0 750 500;" xml:space="preserve">
<g id="BACKGROUND">
</g>
<g id="OBJECTS">
	<g>
		<defs>
			<rect id="SVGID_1_" width="750" height="500"/>
		</defs>
		<clipPath id="SVGID_00000121972895768797489360000004763578486115479726_">
			<use xlink:href="#SVGID_1_"  style="overflow:visible;"/>
		</clipPath>
		<g style="clip-path:url(#SVGID_00000121972895768797489360000004763578486115479726_);">
			<g>
				<g>
					<path style="fill:#FFFFFF;" d="M696.51,141.693c-11.333,3.029-22.575,6.564-33.695,10.311
						c-2.331-4.432-4.987-8.675-7.846-12.675c-4.663-6.512-9.894-12.612-14.678-19.007c3.447-1.203,6.873-2.417,10.309-3.609
						c7.339-2.554,14.729-5.076,22.179-7.461c6.204,10.828,14.83,19.957,22.078,30.078
						C695.416,140.11,695.963,140.901,696.51,141.693z"/>
				</g>
				<g>
					<path style="fill:#FFFFFF;" d="M640.291,120.322c-11.617,4.095-23.284,8.211-35.013,11.999
						c-6.275-8.01-12.884-15.778-17.74-24.769c-1.429-2.649-2.707-5.382-3.811-8.179c13.553-3.757,26.994-8.2,40.365-12.823
						c1.754,7.335,4.288,14.427,7.846,21.001C634.371,112.058,637.24,116.248,640.291,120.322z"/>
				</g>
				<g>
					<path style="fill:#FFFFFF;" d="M815.629-18.046c-6.913,10.976-12.316,23.007-16.016,35.587
						c-5.372-1.129-10.755-2.079-16.158-2.744c-8.292-1.024-16.584-1.404-24.856-1.245C763.17,0.265,769.293-13.001,776.5-25.38
						c2.321,0.179,4.633,0.422,6.954,0.707C794.24-23.333,804.954-20.906,815.629-18.046z"/>
				</g>
				<g>
					<path style="fill:#FFFFFF;" d="M532.536,69.654c-4.491,0.391-8.991,0.644-13.513,0.739c-10.279,0.211-20.74-0.57-31.029-2.374
						c-1.064-13.055-0.162-26.247,2.483-39.059c9.488,1.52,19.088,2.153,28.545,1.963c5.241-0.105,10.461-0.422,15.651-0.929
						C532.07,43.007,531.289,56.41,532.536,69.654z"/>
				</g>
				<g>
					<path style="fill:#FFFFFF;" d="M602.582-24.673c-9.762,13.677-17.06,29.328-21.45,45.813
						c-15.317,4.126-30.786,7.335-46.457,8.854c2.899-14.543,8.059-28.611,15.175-41.454
						C567.65-14.352,585.197-19.122,602.582-24.673z"/>
				</g>
				<g>
					<path style="fill:#19002A;" d="M543.342,107.911c-8.049,1.098-16.158,1.773-24.318,1.942
						c-6.336,0.127-12.935-0.274-19.645-1.172c-0.213-0.369-0.426-0.749-0.629-1.129c-6.133-11.334-9.245-24.241-10.542-37.18
						c-0.081-0.781-0.152-1.573-0.213-2.353c10.289,1.805,20.75,2.586,31.029,2.374c4.521-0.095,9.022-0.348,13.513-0.739
						c0.02,0.243,0.051,0.475,0.071,0.718c1.297,12.939,4.399,25.846,10.532,37.18C543.2,107.668,543.271,107.795,543.342,107.911z"
						/>
				</g>
				<g>
					<path style="fill:#19002A;" d="M549.85-11.46c-7.116,12.844-12.276,26.911-15.175,41.454
						c-5.19,0.507-10.411,0.823-15.651,0.929c-9.458,0.19-19.057-0.443-28.545-1.963c2.747-13.224,7.359-26.046,13.614-37.898
						c4.987,0.369,9.985,0.496,14.932,0.39C529.394-8.759,539.663-9.803,549.85-11.46z"/>
				</g>
				<g>
					<path style="fill:#FFFFFF;" d="M708.867-58.729c-11.049,13.709-21.105,30.173-29.123,47.396
						c-9.802,3.008-19.524,6.3-29.143,9.656c-6.609,2.301-13.219,4.644-19.848,6.955c7.897-20.031,20.243-38.119,36.087-51.955
						C680.687-51.258,694.716-55.458,708.867-58.729z"/>
				</g>
				<g>
					<path style="fill:#FFFFFF;" d="M802.42-60.777c-9.458,10.121-18.297,22.268-25.92,35.397
						c-14.962-1.214-29.904-0.412-44.764,1.762c8.647-15.514,18.814-29.972,29.579-41.781c7.37-0.042,14.759,0.348,22.139,1.266
						C789.8-63.341,796.115-62.181,802.42-60.777z"/>
				</g>
				<g>
					<path style="fill:#19002A;" d="M735.101,133.788c-12.945,1.699-25.819,4.485-38.591,7.905
						c-0.547-0.792-1.095-1.583-1.652-2.364c-7.248-10.121-15.874-19.25-22.078-30.078c12.955-4.158,26.052-7.926,39.25-10.828
						c1.206,3.134,2.595,6.184,4.187,9.129C721.376,117.092,728.492,125.25,735.101,133.788z"/>
				</g>
				<g>
					<path style="fill:#19002A;" d="M761.315-65.399c-10.765,11.809-20.933,26.268-29.579,41.781v0.011
						c-17.496,2.543-34.861,6.997-51.992,12.274c8.018-17.223,18.074-33.687,29.123-47.396
						C726.211-62.729,743.738-65.315,761.315-65.399z"/>
				</g>
				<g>
					<path style="fill:#FFFFFF;" d="M878.021-40.778c-9.711,9.762-17.871,21.213-24.227,33.687
						c-12.691-3.504-25.393-7.535-38.165-10.955c7.532-11.999,16.858-22.722,27.694-31.502
						C854.909-46.16,866.465-42.952,878.021-40.778z"/>
				</g>
				<g>
					<line style="fill:none;" x1="920.768" y1="-39.079" x2="920.758" y2="-39.068"/>
				</g>
				<g>
					<path style="fill:#19002A;" d="M799.612,17.541c-3.649,12.411-5.646,25.35-5.768,38.32c-3.457-0.633-6.924-1.172-10.39-1.604
						c-11.181-1.382-22.362-1.583-33.502-0.865c0.912-12.685,3.974-26.278,8.647-39.84c8.272-0.158,16.564,0.222,24.856,1.245
						C788.857,15.462,794.24,16.412,799.612,17.541z"/>
				</g>
				<g>
					<path style="fill:#19002A;" d="M843.322-49.548c-10.836,8.781-20.162,19.503-27.694,31.502
						c-10.674-2.86-21.389-5.287-32.174-6.628c-2.321-0.285-4.633-0.528-6.954-0.707c7.623-13.129,16.462-25.276,25.92-35.397
						C816.125-57.716,829.749-53.506,843.322-49.548z"/>
				</g>
				<g>
					<path style="fill:#19002A;" d="M662.815,152.003c-4.095,1.361-8.16,2.765-12.215,4.179c-8.789,3.061-17.598,6.206-26.437,9.255
						c-3.061-9.329-7.927-18.194-13.594-26.109c-1.703-2.375-3.487-4.707-5.291-7.008c11.728-3.789,23.396-7.905,35.013-11.999
						c4.785,6.395,10.015,12.495,14.678,19.007C657.828,143.328,660.484,147.571,662.815,152.003z"/>
				</g>
				<g>
					<path style="fill:#19002A;" d="M624.093,86.55c-13.371,4.622-26.812,9.065-40.365,12.823
						c-3.68-9.182-5.738-19.081-6.721-29.001c-0.284-2.839-0.477-5.678-0.568-8.527c15.003-3.841,29.853-8.654,44.622-13.72
						c-0.497,7.409-0.395,14.849,0.345,22.247C621.954,75.807,622.815,81.242,624.093,86.55z"/>
				</g>
				<g>
					<path style="fill:#19002A;" d="M666.84-46.677c-15.844,13.836-28.191,31.924-36.087,51.955v0.011
						c-16.412,5.741-32.924,11.356-49.62,15.851c4.389-16.485,11.688-32.135,21.45-45.813c16.118-5.129,32.093-10.923,48.018-16.474
						C655.983-43.026,661.396-44.883,666.84-46.677z"/>
				</g>
				<g>
					<path style="fill:#FFFFFF;" d="M798.568,417.889c-5.028-1.034-10.066-1.9-15.114-2.522c-10.4-1.288-20.801-1.551-31.171-1.013
						c-4.572-8.622-9.002-17.308-12.408-26.489c-2.078-5.625-3.73-11.398-4.947-17.266c14.668-1.952,29.417-2.522,44.176-1.087
						c1.237,6.237,2.96,12.379,5.17,18.353C788.137,398.302,793.338,408.095,798.568,417.889z"/>
				</g>
				<g>
					<path style="fill:#FFFFFF;" d="M557.808,557.375c-12.793,2.48-25.707,4.074-38.784,4.338c-4.308,0.084-8.647,0-12.996-0.264
						c2.2-13.498,4.035-29.307,5.008-45.169c1.784,0.063,3.578,0.084,5.362,0.074c0.872,0.011,1.754,0,2.625-0.021
						c13.857-0.285,27.552-2.047,41.105-4.791C560.453,527.73,559.642,543.846,557.808,557.375z"/>
				</g>
				<g>
					<path style="fill:#19002A;" d="M511.036,516.28c-0.973,15.862-2.808,31.671-5.008,45.169
						c-14.435-0.865-28.931-3.683-42.575-8.527c4.399-18.078,8.687-36.895,8.941-42.52
						C484.964,513.979,498.061,515.921,511.036,516.28z"/>
				</g>
				<g>
					<path style="fill:#FFFFFF;" d="M604.356,499.637c-14.283,4.601-28.677,8.707-43.224,11.704
						c-0.334,0.074-0.669,0.137-1.003,0.201c-0.314-15.524-1.662-31.112-4.156-44.568c14.202-2.649,28.241-6.427,42.179-10.754
						C601.68,469.063,603.697,484.25,604.356,499.637z"/>
				</g>
				<g>
					<path style="fill:#FFFFFF;" d="M647.813,530.073h-0.01c-15.134,5.298-30.319,10.765-45.626,15.64
						c2.088-14.026,2.859-30.162,2.179-46.077c0.446-0.137,0.882-0.274,1.328-0.422c14.526-4.707,28.941-9.899,43.315-14.923
						C650.844,499.5,650.469,515.003,647.813,530.073z"/>
				</g>
				<g>
					<path style="fill:#19002A;" d="M602.177,545.714c-14.658,4.654-29.427,8.77-44.369,11.662
						c1.835-13.53,2.646-29.645,2.321-45.834c0.335-0.063,0.669-0.127,1.003-0.201c14.547-2.997,28.941-7.103,43.224-11.704
						C605.035,515.552,604.265,531.688,602.177,545.714z"/>
				</g>
				<g>
					<path style="fill:#FFFFFF;" d="M686.87,471.934c-12.215,3.567-24.318,7.63-36.27,11.799c-0.537,0.19-1.064,0.369-1.602,0.559
						c-1.703-14.015-5.302-27.777-10.745-40.716c-0.112-0.253-0.213-0.517-0.324-0.77c4.237-1.488,8.454-2.976,12.671-4.454
						c7.177-2.501,14.404-4.96,21.683-7.303c2.078,4.116,4.055,8.274,5.849,12.527C681.974,452.684,684.893,462.203,686.87,471.934z
						"/>
				</g>
				<g>
					<path style="fill:#19002A;" d="M689.455,516.565c-13.097,3.736-26.062,8.074-38.855,12.538
						c-0.933,0.327-1.855,0.654-2.788,0.971c2.656-15.07,3.031-30.574,1.186-45.781c0.537-0.19,1.065-0.369,1.602-0.559
						c11.951-4.169,24.055-8.232,36.27-11.799C689.86,486.561,690.742,501.663,689.455,516.565z"/>
				</g>
				<g>
					<path style="fill:#FFFFFF;" d="M822.795,514.718c-13.046-3.694-26.143-6.965-39.341-8.601c-1.551-0.19-3.102-0.359-4.653-0.507
						c0.233-15.503-1.835-31.038-6.143-45.855c3.599,0.211,7.197,0.538,10.796,0.982c12.022,1.488,23.953,4.337,35.834,7.62
						C822.755,483.49,823.941,499.204,822.795,514.718z"/>
				</g>
				<g>
					<path style="fill:#19002A;" d="M752.283,414.354c-13.817,0.718-27.583,2.871-41.237,5.931
						c-5.646-10.596-11.394-21.128-15.57-32.42c-1.014-2.755-1.936-5.541-2.737-8.359c13.948-3.873,28.029-7.029,42.19-8.907
						c1.216,5.868,2.869,11.641,4.947,17.266C743.282,397.046,747.711,405.732,752.283,414.354z"/>
				</g>
				<g>
					<path style="fill:#19002A;" d="M778.801,505.61c-14.84-1.414-29.681-0.802-44.43,1.193c0.355-15.028-1.47-30.12-5.423-44.578
						c14.506-2.29,29.103-3.314,43.71-2.469C776.967,474.572,779.034,490.107,778.801,505.61z"/>
				</g>
				<g>
					<path style="fill:#FFFFFF;" d="M866.11,481.527c-15.57-3.747-31.151-8.844-46.822-13.171
						c-1.936-8.485-4.592-16.791-7.958-24.78c-3.72-8.823-8.251-17.255-12.762-25.687c17.375,3.588,34.597,9.224,51.769,14.089
						c1.906,3.81,3.731,7.662,5.383,11.598C860.809,455.66,864.285,468.472,866.11,481.527z"/>
				</g>
				<g>
					<path style="fill:#19002A;" d="M865.816,526.833c-14.313-3.462-28.637-8.042-43.021-12.116
						c1.146-15.514-0.041-31.228-3.507-46.362c15.672,4.327,31.252,9.424,46.822,13.171
						C868.198,496.534,868.127,511.868,865.816,526.833z"/>
				</g>
				<g>
					<path style="fill:#FFFFFF;" d="M467.437,463.512c-19.595-5.773-38.773-14.817-54.242-26.795
						c-7.755-16.421-17.668-31.777-23.984-48.852c-2.788-7.556-4.805-15.355-6.062-23.292c15.56,13.393,35.611,26.331,56.26,36.811
						c6.802,14.195,15.134,27.65,21.257,42.193C463.383,450.035,465.643,456.705,467.437,463.512z"/>
				</g>
				<g>
					<path style="fill:#19002A;" d="M472.394,510.401c-16.371-4.654-31.85-12.084-44.987-22.437
						c-1.49-15.281-5.22-30.32-11.14-44.388c-0.973-2.311-2.007-4.591-3.072-6.86c15.469,11.978,34.648,21.023,54.242,26.795
						C471.441,478.73,473.114,494.624,472.394,510.401z"/>
				</g>
				<g>
					<path style="fill:#FFFFFF;" d="M472.394,510.401c-0.253,5.625-4.541,24.442-8.941,42.52
						c-13.827-4.907-26.782-11.915-37.942-21.118c2.717-14.406,3.335-29.233,1.896-43.839
						C440.544,498.318,456.023,505.747,472.394,510.401z"/>
				</g>
				<g>
					<path style="fill:#FFFFFF;" d="M426.201,352.658c-15.692-9.277-30.634-19.714-43.051-30.299
						c1.612-10.511,4.399-20.854,8.272-30.732c10.998,8.844,23.751,17.339,37.131,24.896
						C426.221,328.427,425.4,340.616,426.201,352.658z"/>
				</g>
				<g>
					<path style="fill:#FFFFFF;" d="M456.135,256.103c-1.399,1.794-2.757,3.609-4.065,5.435
						c-5.504,7.683-10.208,15.988-14.04,24.727c-11.191-6.955-21.176-15.682-29.235-26.268c5.403-7.356,11.515-14.437,17.354-21.645
						C435.151,245.656,445.309,251.555,456.135,256.103z"/>
				</g>
				<g>
					<path style="fill:#19002A;" d="M464.32-17.025c-6.36,10.31-11.41,21.54-14.98,33.26c-11.17-5.44-25.02-1.82-34.79-7.68
						c-1.45-0.87-2.81-1.94-4.05-3.28c4-7.59,12.05-24.94,18.33-34.58c1.09-1.67,2.13-3.11,3.08-4.23c1.76,1.25,3.56,2.45,5.39,3.6
						c0.53,0.34,1.06,0.67,1.59,0.98C446.84-24.095,455.41-20.125,464.32-17.025z"/>
				</g>
				<g>
					<path style="fill:#19002A;" d="M448.26,92.935c0,0-27.62,0.73-43.51-8.74c-0.44-2.68-0.8-5.37-1.06-8.07
						c-1.01-10.1-0.8-20.31,0.53-30.35c-0.02,0-0.03-0.01-0.05-0.01c0-0.01,0.02-0.01,0.05-0.01c1.33-0.12,38.43,6.04,39,7.17
						c0.01,0.01,0.02,0.03,0.02,0.05c-0.02-0.05,0.03,3.72-0.06,5.2c-0.01,0.04-0.01,0.08,0,0.13c-0.01,0.1-0.01,0.2-0.01,0.29
						c0,0.09,0,0.18,0.01,0.27c0,0.22,0.01,0.44,0.01,0.66c0.01,0.6,0.02,1.19,0.04,1.79c0,0.12,0.01,0.23,0.01,0.34
						c0.03,0.94,0.08,1.89,0.13,2.83c0.05,0.99,0.12,1.97,0.19,2.95c0.08,0.98,0.16,1.96,0.26,2.94
						C444.58,78.015,445.98,85.645,448.26,92.935z"/>
				</g>
				<g>
					<path style="fill:#19002A;" d="M494.44,187.405c-14.89-1.99-29.58-6.06-43.08-12.36c-0.85-0.39-1.7-0.8-2.54-1.21
						c-0.9-4.44-2.24-8.81-3.94-13.06c-3.03-7.62-7.19-14.86-11.9-21.45c-7.62-10.64-10.02-11.62-11.3-15.13
						c0,0,29.5,14.87,59.95,21.51C489.4,158.295,494.81,172.735,494.44,187.405z"/>
				</g>
				<g>
					<path style="fill:#19002A;" d="M480.99,224.496c-7.4,10.912-16.695,21.044-24.856,31.608
						c-10.826-4.549-20.983-10.448-29.985-17.751c7.045-8.707,13.695-17.593,18.185-27.365
						C455.729,217.171,468.167,221.646,480.99,224.496z"/>
				</g>
				<g>
					<path style="fill:#19002A;" d="M438.03,286.266c-4.247,9.667-7.44,19.851-9.478,30.257
						c-13.381-7.556-26.133-16.052-37.131-24.896c4.176-10.691,9.64-20.843,16.249-30.088c0.375-0.517,0.74-1.034,1.125-1.541
						C416.854,270.583,426.839,279.311,438.03,286.266z"/>
				</g>
				<g>
					<path style="fill:#19002A;" d="M439.409,401.383c-20.649-10.48-40.699-23.418-56.26-36.811c-2.23-13.909-2.159-28.21,0-42.214
						c12.418,10.585,27.359,21.023,43.051,30.299c0.801,12.02,3.234,23.904,7.41,35.207
						C435.314,392.476,437.28,396.961,439.409,401.383z"/>
				</g>
				<g>
					<path style="fill:#FFFFFF;" d="M494.797,422.554c-16.949-3.947-36.412-11.525-55.388-21.17
						c-2.129-4.422-4.095-8.907-5.798-13.519c-4.176-11.303-6.609-23.186-7.41-35.207c15.884,9.393,32.549,17.593,48.16,23.513
						c1.014,3.958,2.23,7.852,3.649,11.693C482.48,399.959,488.765,411.198,494.797,422.554z"/>
				</g>
				<g>
					<path style="fill:#FFFFFF;" d="M476.479,302.36c-3.335,10.997-5.362,22.395-5.981,33.856
						c-13.806-5.15-28.201-11.926-41.946-19.693c2.037-10.406,5.231-20.59,9.478-30.257
						C449.779,293.558,462.866,298.888,476.479,302.36z"/>
				</g>
				<g>
					<path style="fill:#FFFFFF;" d="M522.835,228.137c-8.241,11.377-18.226,22.025-26.366,33.402
						c-1.095,1.52-2.149,3.071-3.183,4.643c-12.752-1.784-25.342-5.129-37.152-10.079c8.16-10.564,17.456-20.695,24.856-31.608
						c12.519,2.786,25.403,4.021,38.034,3.757C520.291,228.232,521.568,228.189,522.835,228.137z"/>
				</g>
				<g>
					<path style="fill:#FFFFFF;" d="M494.442,187.4c-0.04,1.794-0.182,3.567-0.395,5.361c-1.46,11.778-6.508,22.067-13.056,31.734
						c-12.823-2.849-25.261-7.324-36.655-13.508c2.625-5.72,4.511-11.757,5.312-18.226c0.791-6.353,0.426-12.706-0.831-18.923
						C463.008,180.825,478.608,185.3,494.442,187.4z"/>
				</g>
				<g>
					<path style="fill:#FFFFFF;" d="M538.831,187.411c-6.569,0.76-13.168,1.235-19.807,1.372c-8.14,0.169-16.391-0.285-24.582-1.383
						c0.365-14.669-5.038-29.107-12.813-41.697c12.316,2.691,24.987,3.873,37.395,3.62c2.98-0.063,5.95-0.19,8.92-0.39
						C534.675,160.731,539.176,173.976,538.831,187.411z"/>
				</g>
				<g>
					<path style="fill:#FFFFFF;" d="M499.38,108.685c-16.97-2.27-34.71-7.72-51.12-15.75c-2.28-7.29-3.68-14.92-4.44-22.56
						c-0.1-0.98-0.18-1.96-0.26-2.94c-0.07-0.98-0.14-1.96-0.19-2.95c-0.05-0.94-0.1-1.89-0.13-2.83c0-0.11-0.01-0.22-0.01-0.34
						c-0.02-0.6-0.03-1.19-0.04-1.79c0-0.22-0.01-0.44-0.01-0.66v-0.56c-0.01-0.05-0.01-0.09,0-0.13c-0.02-1.74,0-3.47,0.06-5.2
						c0-0.15,0-0.3,0.01-0.45c13.74,7.63,29.05,12.75,44.74,15.49c0.07,0.78,0.14,1.58,0.22,2.36c1.3,12.94,4.41,25.84,10.54,37.18
						C498.95,107.935,499.17,108.315,499.38,108.685z"/>
				</g>
				<g>
					<path style="fill:#FFFFFF;" d="M511.036,516.28c-12.975-0.359-26.072-2.301-38.642-5.878
						c0.72-15.777-0.953-31.671-4.957-46.889c14.698,4.338,29.64,6.839,43.406,7.366C512.111,484.577,512.009,500.46,511.036,516.28
						z"/>
				</g>
				<g>
					<path style="fill:#19002A;" d="M560.129,511.541c-13.553,2.744-27.248,4.506-41.105,4.791
						c-0.872,0.021-1.754,0.032-2.625,0.021c-1.784,0.011-3.578-0.01-5.362-0.074c0.973-15.82,1.074-31.703-0.193-45.401
						c2.777,0.116,5.504,0.137,8.181,0.085c12.448-0.253,24.754-1.71,36.949-3.989C558.466,480.429,559.815,496.017,560.129,511.541
						z"/>
				</g>
				<g>
					<path style="fill:#19002A;" d="M510.843,470.878c-13.766-0.528-28.708-3.029-43.406-7.366
						c-1.794-6.807-4.055-13.477-6.771-19.936c-6.123-14.543-14.455-27.998-21.257-42.193c18.976,9.646,38.439,17.223,55.388,21.17
						c3.659,6.892,7.228,13.825,10.258,21.023C508.005,450.584,509.85,460.051,510.843,470.878z"/>
				</g>
				<g>
					<path style="fill:#FFFFFF;" d="M555.973,466.974c-12.195,2.28-24.501,3.736-36.949,3.989c-2.676,0.053-5.403,0.032-8.181-0.085
						c-0.993-10.828-2.838-20.294-5.788-27.302c-3.031-7.197-6.599-14.131-10.258-21.023c8.92,2.09,17.141,3.177,24.227,3.029
						c7.035-0.148,14.019-0.665,20.973-1.509c3.376,6.396,6.65,12.833,9.458,19.503C552.151,449.993,554.32,458.003,555.973,466.974
						z"/>
				</g>
				<g>
					<path style="fill:#19002A;" d="M474.361,376.171c-15.611-5.921-32.276-14.121-48.16-23.513
						c-0.801-12.042,0.02-24.231,2.352-36.135c13.746,7.767,28.14,14.543,41.946,19.693
						C469.779,349.671,470.995,363.19,474.361,376.171z"/>
				</g>
				<g>
					<path style="fill:#FFFFFF;" d="M521.751,386.039c-0.912,0.032-1.815,0.053-2.727,0.074
						c-12.103,0.253-27.765-3.514-44.663-9.941c-3.366-12.981-4.582-26.5-3.862-39.956c16.219,6.047,31.627,9.846,44.227,10.374
						C515.01,360.024,517.291,373.385,521.751,386.039z"/>
				</g>
				<g>
					<path style="fill:#19002A;" d="M493.286,266.182c-7.258,11.102-12.914,23.355-16.807,36.177
						c-13.614-3.472-26.701-8.802-38.449-16.094c3.832-8.738,8.535-17.044,14.04-24.727c1.308-1.826,2.666-3.641,4.065-5.435
						C467.944,261.053,480.534,264.399,493.286,266.182z"/>
				</g>
				<g>
					<path style="fill:#FFFFFF;" d="M537.483,266.499c-8.059,12.4-14.131,26.226-17.963,40.673c-0.162,0-0.335,0.011-0.497,0.011
						c-14.151,0.285-28.616-1.288-42.544-4.823c3.892-12.822,9.549-25.075,16.807-36.177c8.576,1.214,17.212,1.71,25.738,1.541
						C525.207,267.596,531.361,267.174,537.483,266.499z"/>
				</g>
				<g>
					<path style="fill:#19002A;" d="M538.831,187.411c-0.03,1.784-0.172,3.567-0.385,5.351
						c-1.642,13.266-7.846,24.643-15.611,35.375c-1.267,0.053-2.544,0.095-3.811,0.116c-12.631,0.264-25.515-0.971-38.034-3.757
						c6.548-9.667,11.597-19.957,13.056-31.734c0.213-1.794,0.355-3.567,0.395-5.361c8.191,1.098,16.442,1.551,24.582,1.383
						C525.664,188.645,532.263,188.17,538.831,187.411z"/>
				</g>
				<g>
					<path style="fill:#FFFFFF;" d="M582.836,192.761c-1.277,10.269-5.271,19.419-10.623,27.999
						c-16.249,3.958-32.691,6.712-49.377,7.377c7.765-10.733,13.969-22.11,15.611-35.375c0.213-1.783,0.355-3.567,0.385-5.351
						c14.81-1.71,29.448-4.876,43.943-8.854C583.373,183.253,583.423,188.002,582.836,192.761z"/>
				</g>
				<g>
					<path style="fill:#19002A;" d="M527.94,148.935c-2.97,0.2-5.94,0.32-8.92,0.39c-12.4,0.25-25.07-0.93-37.39-3.62
						c-1.35-2.19-2.77-4.31-4.25-6.38c-7.62-10.64-16.78-20.2-23.03-31.77c-2.5-4.65-4.51-9.54-6.09-14.62
						c16.41,8.03,34.15,13.48,51.12,15.75c6.22,11.07,15.03,20.34,22.4,30.64C523.97,142.395,526.05,145.605,527.94,148.935z"/>
				</g>
				<g>
					<path style="fill:#FFFFFF;" d="M568.502,142.716c-13.381,3.092-26.893,5.33-40.558,6.216c-1.896-3.324-3.974-6.533-6.163-9.604
						c-7.37-10.3-16.178-19.577-22.402-30.648c6.711,0.897,13.31,1.298,19.645,1.172c8.16-0.169,16.27-0.844,24.318-1.942
						c6.255,11.419,15.297,20.885,22.828,31.418C566.961,140.437,567.742,141.566,568.502,142.716z"/>
				</g>
				<g>
					<path style="fill:#19002A;" d="M487.99,68.015c-15.69-2.74-31-7.86-44.74-15.49c0.43-12.3,2.51-24.55,6.09-36.29
						c12.87,6.26,26.87,10.48,41.14,12.72C487.83,41.775,486.93,54.965,487.99,68.015z"/>
				</g>
				<g>
					<path style="fill:#FFFFFF;" d="M504.092-8.938c-6.255,11.852-10.867,24.674-13.614,37.898
						c-14.273-2.248-28.272-6.469-41.135-12.728c3.568-11.714,8.616-22.943,14.972-33.254C477.098-12.579,490.6-9.909,504.092-8.938
						z"/>
				</g>
				<g>
					<path style="fill:#19002A;" d="M539.997,424.073c-6.954,0.844-13.938,1.361-20.973,1.509
						c-7.086,0.148-15.307-0.939-24.227-3.029c-6.031-11.356-12.316-22.595-16.787-34.689c-1.419-3.842-2.636-7.736-3.649-11.693
						c16.898,6.427,32.56,10.195,44.663,9.941c0.912-0.021,1.815-0.042,2.727-0.074c0.203,0.612,0.426,1.224,0.649,1.826
						C527.083,400.497,533.722,412.19,539.997,424.073z"/>
				</g>
				<g>
					<path style="fill:#FFFFFF;" d="M580.129,416.074c-13.249,3.535-26.619,6.364-40.132,8
						c-6.275-11.883-12.914-23.577-17.598-36.209c-0.223-0.602-0.446-1.214-0.649-1.826c14.364-0.496,28.545-2.543,42.585-5.593
						c0.74,2.501,1.561,4.971,2.463,7.419C570.418,397.658,575.223,406.892,580.129,416.074z"/>
				</g>
				<g>
					<path style="fill:#19002A;" d="M514.726,346.59c-12.6-0.528-28.008-4.327-44.227-10.374
						c0.618-11.461,2.646-22.859,5.981-33.856c13.928,3.535,28.393,5.108,42.544,4.823c0.162,0,0.334-0.011,0.497-0.011
						C516.094,320.016,514.442,333.345,514.726,346.59z"/>
				</g>
				<g>
					<path style="fill:#FFFFFF;" d="M565.633,301.23c-4.126,13.202-6.366,27.028-6.518,40.832
						c-13.219,2.628-26.579,4.316-40.091,4.591c-1.389,0.032-2.828,0.01-4.298-0.063c-0.284-13.245,1.368-26.574,4.795-39.418
						C535.091,306.813,550.438,304.597,565.633,301.23z"/>
				</g>
				<g>
					<path style="fill:#19002A;" d="M572.212,220.76c-8.89,14.258-21.47,26.985-31.343,40.779c-1.166,1.625-2.291,3.282-3.386,4.96
						c-6.123,0.675-12.276,1.098-18.459,1.224c-8.525,0.169-17.162-0.327-25.738-1.541c1.034-1.573,2.088-3.124,3.183-4.643
						c8.14-11.377,18.125-22.025,26.366-33.402C539.521,227.472,555.963,224.717,572.212,220.76z"/>
				</g>
				<g>
					<path style="fill:#FFFFFF;" d="M624.407,204.824c-6.569,18.954-21.886,34.32-34.628,50.689
						c-17.223,5.024-34.628,9.055-52.296,10.986c1.095-1.678,2.22-3.335,3.386-4.96c9.873-13.794,22.453-26.521,31.343-40.779
						C589.789,216.486,607.154,210.797,624.407,204.824z"/>
				</g>
				<g>
					<path style="fill:#19002A;" d="M538.831,187.411c0.345-13.435-4.156-26.679-10.887-38.478
						c13.664-0.887,27.177-3.124,40.558-6.216c7.157,10.786,12.681,23.102,14.273,35.84
						C568.279,182.535,553.641,185.701,538.831,187.411z"/>
				</g>
				<g>
					<path style="fill:#FFFFFF;" d="M624.163,165.438c-13.705,4.76-27.481,9.319-41.389,13.118
						c-1.591-12.738-7.116-25.054-14.273-35.84c12.357-2.86,24.602-6.448,36.777-10.395c1.804,2.301,3.589,4.633,5.291,7.008
						C616.236,147.244,621.102,156.109,624.163,165.438z"/>
				</g>
				<g>
					<path style="fill:#19002A;" d="M605.278,132.321c-12.174,3.947-24.42,7.535-36.777,10.395c-0.76-1.15-1.541-2.279-2.331-3.388
						c-7.532-10.533-16.574-19.999-22.828-31.418c13.604-1.836,27.045-4.844,40.385-8.538c1.105,2.797,2.382,5.53,3.811,8.179
						C592.395,116.544,599.004,124.311,605.278,132.321z"/>
				</g>
				<g>
					<path style="fill:#FFFFFF;" d="M583.728,99.373c-13.34,3.694-26.782,6.701-40.385,8.538c-0.071-0.116-0.142-0.243-0.203-0.359
						c-6.133-11.334-9.235-24.241-10.532-37.18c-0.02-0.243-0.051-0.475-0.071-0.718c14.8-1.287,29.427-4.095,43.903-7.81
						c0.091,2.849,0.284,5.688,0.568,8.527C577.99,80.292,580.048,90.191,583.728,99.373z"/>
				</g>
				<g>
					<path style="fill:#19002A;" d="M598.152,456.22c-13.938,4.327-27.978,8.105-42.179,10.754
						c-1.652-8.97-3.822-16.981-6.518-23.397c-2.808-6.67-6.082-13.107-9.458-19.503c13.512-1.636,26.883-4.464,40.132-8
						c4.825,9.044,9.742,18.047,13.725,27.502C595.476,447.439,596.905,451.682,598.152,456.22z"/>
				</g>
				<g>
					<path style="fill:#FFFFFF;" d="M637.919,442.806c-13.188,4.643-26.427,9.287-39.767,13.414
						c-1.247-4.538-2.676-8.781-4.298-12.643c-3.984-9.456-8.9-18.458-13.725-27.502c12.843-3.43,25.586-7.525,38.257-11.852
						C624.772,417.129,632.253,429.53,637.919,442.806z"/>
				</g>
				<g>
					<path style="fill:#19002A;" d="M564.336,380.445c-14.04,3.05-28.221,5.097-42.585,5.593
						c-4.46-12.654-6.741-26.014-7.025-39.449c1.47,0.074,2.909,0.095,4.298,0.063c13.513-0.274,26.873-1.963,40.091-4.591
						C558.953,355.053,560.636,368.034,564.336,380.445z"/>
				</g>
				<g>
					<path style="fill:#FFFFFF;" d="M605.907,368.921c-13.746,4.464-27.593,8.485-41.571,11.524
						c-3.7-12.411-5.383-25.392-5.22-38.383c15.175-3.008,30.167-7.261,45.048-12.052
						C602.886,343.012,603.403,356.161,605.907,368.921z"/>
				</g>
				<g>
					<path style="fill:#19002A;" d="M589.779,255.512c-1.551,1.984-3.071,4-4.521,6.026c-8.566,11.968-15.195,25.466-19.625,39.692
						c-15.195,3.367-30.542,5.583-46.113,5.942c3.832-14.448,9.904-28.273,17.963-40.673
						C555.152,264.567,572.557,260.536,589.779,255.512z"/>
				</g>
				<g>
					<path style="fill:#FFFFFF;" d="M650.783,235.049c-7.005,8.865-14.648,17.445-21.125,26.489
						c-5.626,7.852-10.411,16.368-14.293,25.318c-16.432,5.551-32.985,10.659-49.731,14.374
						c4.43-14.226,11.059-27.724,19.625-39.692c1.45-2.026,2.97-4.042,4.521-6.026c20.477-5.984,40.689-13.371,60.821-20.4
						L650.783,235.049z"/>
				</g>
				<g>
					<path style="fill:#19002A;" d="M627.235,192.761c-0.517,4.19-1.49,8.2-2.828,12.063c-17.253,5.973-34.617,11.662-52.195,15.936
						c5.352-8.58,9.346-17.73,10.623-27.999c0.588-4.76,0.537-9.509-0.061-14.205c13.908-3.799,27.684-8.358,41.389-13.118
						C627.083,174.261,628.38,183.506,627.235,192.761z"/>
				</g>
				<g>
					<path style="fill:#FFFFFF;" d="M671.989,188.434c-7.177,2.322-14.313,4.749-21.389,7.219
						c-8.708,3.039-17.435,6.142-26.194,9.171c1.338-3.863,2.311-7.873,2.828-12.063c1.146-9.255-0.152-18.5-3.072-27.323
						c8.839-3.05,17.648-6.195,26.437-9.255c4.055-1.414,8.12-2.818,12.215-4.179C668.766,163.317,672.547,175.812,671.989,188.434z
						"/>
				</g>
				<g>
					<path style="fill:#19002A;" d="M576.439,61.845c-14.475,3.715-29.103,6.522-43.903,7.81
						c-1.247-13.245-0.466-26.648,2.139-39.66c15.672-1.52,31.14-4.728,46.457-8.854C577.605,34.374,575.963,48.136,576.439,61.845z
						"/>
				</g>
				<g>
					<path style="fill:#FFFFFF;" d="M630.752,5.288c-5.383,13.625-8.708,28.157-9.691,42.837
						c-14.769,5.066-29.62,9.878-44.622,13.72c-0.476-13.709,1.166-27.471,4.693-40.705
						C597.828,16.644,614.341,11.029,630.752,5.288z"/>
				</g>
				<g>
					<path style="fill:#19002A;" d="M648.999,484.292c-14.374,5.023-28.789,10.216-43.315,14.923
						c-0.446,0.148-0.882,0.285-1.328,0.422c-0.659-15.387-2.676-30.574-6.204-43.417c13.34-4.126,26.579-8.77,39.767-13.414h0.01
						c0.112,0.253,0.213,0.517,0.324,0.77C643.697,456.515,647.296,470.277,648.999,484.292z"/>
				</g>
				<g>
					<path style="fill:#19002A;" d="M618.385,404.222c-12.671,4.327-25.413,8.422-38.257,11.852
						c-4.906-9.182-9.711-18.416-13.33-28.21c-0.902-2.449-1.723-4.918-2.463-7.419c13.979-3.039,27.826-7.06,41.571-11.524
						c1.247,6.438,3.011,12.78,5.291,18.944C613.276,393.468,615.74,398.882,618.385,404.222z"/>
				</g>
				<g>
					<path style="fill:#FFFFFF;" d="M652.79,392.223c-0.73,0.253-1.46,0.507-2.19,0.76c-10.704,3.736-21.44,7.567-32.215,11.24
						c-2.646-5.34-5.109-10.754-7.187-16.358c-2.281-6.163-4.045-12.506-5.291-18.944c12.742-4.137,25.403-8.643,38.023-13.076
						c0.994,10.934,3.345,21.719,7.157,32.02C651.624,389.331,652.192,390.777,652.79,392.223z"/>
				</g>
				<g>
					<path style="fill:#19002A;" d="M615.365,286.857c-5.93,13.646-9.742,28.305-11.201,43.153
						c-14.881,4.791-29.873,9.044-45.048,12.052c0.152-13.804,2.392-27.629,6.518-40.832
						C582.379,297.516,598.933,292.408,615.365,286.857z"/>
				</g>
				<g>
					<path style="fill:#FFFFFF;" d="M663.961,270.013c-8.454,13.91-14.475,29.455-17.74,45.56
						c-13.948,4.897-27.958,9.91-42.058,14.437c1.46-14.849,5.271-29.508,11.201-43.153c11.799-3.979,23.528-8.19,35.236-12.274
						C655.03,273.031,659.49,271.501,663.961,270.013z"/>
				</g>
				<g>
					<path style="fill:#19002A;" d="M671.989,188.434c-0.061,1.446-0.182,2.881-0.355,4.327
						c-1.997,16.136-10.755,29.497-20.852,42.288l-0.182,0.063c-20.132,7.029-40.345,14.416-60.821,20.4
						c12.742-16.369,28.059-31.734,34.628-50.689c8.758-3.029,17.486-6.132,26.194-9.171
						C657.676,193.183,664.812,190.756,671.989,188.434z"/>
				</g>
				<g>
					<path style="fill:#FFFFFF;" d="M711.523,192.761c-1.196,9.667-4.815,18.321-9.701,26.468v0.011
						c-17.243,4.348-34.293,9.973-51.039,15.809c10.096-12.791,18.855-26.152,20.852-42.288c0.172-1.446,0.294-2.881,0.355-4.327
						c12.975-4.179,26.102-7.978,39.331-10.923C712.04,182.545,712.151,187.653,711.523,192.761z"/>
				</g>
				<g>
					<path style="fill:#FFFFFF;" d="M661.285,70.372c0.101,1.034,0.223,2.058,0.355,3.092c-3.69,1.245-7.37,2.512-11.039,3.789
						c-8.819,3.071-17.648,6.227-26.508,9.298c-1.277-5.309-2.139-10.743-2.686-16.179c-0.74-7.398-0.841-14.838-0.345-22.247
						c9.883-3.398,19.716-6.912,29.539-10.342c4.541-1.583,9.113-3.155,13.705-4.686C661.335,46.426,660.17,59.164,661.285,70.372z"
						/>
				</g>
				<g>
					<path style="fill:#19002A;" d="M672.283,431.049c-7.278,2.343-14.506,4.802-21.683,7.303
						c-4.217,1.478-8.434,2.966-12.671,4.454h-0.01c-5.667-13.276-13.147-25.677-19.534-38.584
						c10.775-3.673,21.51-7.504,32.215-11.24c0.73-0.253,1.46-0.507,2.19-0.76C658.284,405.637,665.765,418.111,672.283,431.049z"/>
				</g>
				<g>
					<path style="fill:#FFFFFF;" d="M711.047,420.285c-13.036,2.902-25.971,6.649-38.763,10.765
						c-6.518-12.939-13.999-25.413-19.493-38.826c13.147-4.57,26.488-8.97,39.949-12.717c0.801,2.818,1.723,5.604,2.737,8.359
						C699.653,399.157,705.4,409.689,711.047,420.285z"/>
				</g>
				<g>
					<path style="fill:#19002A;" d="M643.93,355.845c-12.62,4.432-25.281,8.939-38.023,13.076
						c-2.504-12.759-3.021-25.909-1.744-38.911c14.1-4.527,28.109-9.54,42.058-14.437
						C643.535,328.828,642.704,342.453,643.93,355.845z"/>
				</g>
				<g>
					<path style="fill:#FFFFFF;" d="M694.686,300.048c-4.308,13.361-6.67,27.386-6.893,41.401v0.011
						c-12.529,3.62-24.947,7.778-37.192,12.052c-2.22,0.77-4.44,1.551-6.67,2.332c-1.227-13.392-0.395-27.017,2.291-40.272
						c1.46-0.507,2.919-1.024,4.379-1.53C665.086,308.987,679.815,304.09,694.686,300.048z"/>
				</g>
				<g>
					<path style="fill:#19002A;" d="M672.78,109.251c-7.451,2.385-14.84,4.907-22.179,7.461c-3.436,1.192-6.863,2.406-10.309,3.609
						c-3.051-4.074-5.92-8.264-8.353-12.77c-3.558-6.575-6.092-13.667-7.846-21.001c8.86-3.071,17.689-6.227,26.508-9.298
						c3.669-1.277,7.349-2.543,11.039-3.789c1.46,11.894,4.541,23.661,10.188,34.088
						C672.131,108.122,672.445,108.692,672.78,109.251z"/>
				</g>
				<g>
					<path style="fill:#FFFFFF;" d="M712.03,98.423c-13.198,2.902-26.295,6.67-39.25,10.828c-0.334-0.559-0.649-1.129-0.953-1.699
						c-5.646-10.427-8.728-22.194-10.188-34.088c14.374-4.865,28.961-9.393,43.67-12.949c-0.061,3.398,0.061,6.691,0.375,9.857
						C706.647,79.944,708.593,89.505,712.03,98.423z"/>
				</g>
				<g>
					<path style="fill:#19002A;" d="M679.744-11.334c-6.853,14.68-12.215,29.898-15.438,44.43c-4.592,1.53-9.164,3.103-13.705,4.686
						c-9.823,3.43-19.655,6.944-29.539,10.342c0.983-14.68,4.308-29.212,9.691-42.837V5.278c6.629-2.311,13.239-4.654,19.848-6.955
						C660.22-5.033,669.942-8.326,679.744-11.334z"/>
				</g>
				<g>
					<path style="fill:#FFFFFF;" d="M731.736-23.607c-7.714,13.846-14.212,28.516-18.824,42.911
						c-16.381,3.556-32.621,8.453-48.606,13.794c3.224-14.532,8.586-29.75,15.438-44.43C696.875-16.61,714.24-21.064,731.736-23.607
						z"/>
				</g>
				<g>
					<path style="fill:#FFFFFF;" d="M734.371,506.803c-15.084,2.037-30.076,5.52-44.916,9.762
						c1.287-14.901,0.405-30.004-2.585-44.631c13.898-4.063,27.947-7.482,42.078-9.709
						C732.902,476.683,734.726,491.774,734.371,506.803z"/>
				</g>
				<g>
					<path style="fill:#19002A;" d="M728.948,462.224c-14.131,2.227-28.181,5.646-42.078,9.709
						c-1.977-9.73-4.896-19.25-8.738-28.357c-1.794-4.253-3.771-8.411-5.849-12.527c12.793-4.116,25.727-7.862,38.763-10.765
						c4.085,7.641,8.12,15.303,11.485,23.292C725.076,449.634,727.225,455.871,728.948,462.224z"/>
				</g>
				<g>
					<path style="fill:#19002A;" d="M819.288,468.356c-11.88-3.282-23.812-6.132-35.834-7.62c-3.599-0.443-7.197-0.77-10.796-0.982
						c-1.602-5.509-3.507-10.912-5.727-16.179c-4.237-10.057-9.529-19.598-14.648-29.223c10.37-0.538,20.77-0.274,31.171,1.013
						c5.048,0.623,10.086,1.488,15.114,2.522c4.511,8.432,9.042,16.865,12.762,25.687
						C814.696,451.565,817.352,459.871,819.288,468.356z"/>
				</g>
				<g>
					<path style="fill:#FFFFFF;" d="M772.658,459.755c-14.607-0.844-29.204,0.179-43.71,2.469
						c-1.723-6.353-3.872-12.59-6.417-18.648c-3.365-7.989-7.4-15.651-11.485-23.292c13.654-3.06,27.42-5.214,41.237-5.931
						c5.119,9.625,10.41,19.165,14.648,29.223C769.151,448.843,771.057,454.246,772.658,459.755z"/>
				</g>
				<g>
					<path style="fill:#19002A;" d="M692.739,379.506c-13.462,3.747-26.802,8.147-39.949,12.717
						c-0.598-1.446-1.166-2.892-1.703-4.359c-3.811-10.3-6.163-21.086-7.157-32.02c2.23-0.781,4.45-1.562,6.67-2.332
						c12.245-4.274,24.663-8.432,37.192-12.052C687.58,354.336,689.171,367.179,692.739,379.506z"/>
				</g>
				<g>
					<path style="fill:#FFFFFF;" d="M734.929,370.599c-14.161,1.879-28.241,5.034-42.19,8.907
						c-3.568-12.326-5.16-25.17-4.947-38.045v-0.011c14.83-4.295,29.833-7.862,44.916-10.005
						C731.553,344.553,732.233,357.787,734.929,370.599z"/>
				</g>
				<g>
					<path style="fill:#19002A;" d="M712.912,19.303c-4.633,14.406-7.39,28.516-7.603,41.212
						c-14.709,3.557-29.296,8.084-43.67,12.949c-0.132-1.034-0.253-2.058-0.355-3.092c-1.115-11.208,0.051-23.946,3.021-37.275
						C680.291,27.757,696.531,22.86,712.912,19.303z"/>
				</g>
				<g>
					<path style="fill:#FFFFFF;" d="M758.599,13.552c-4.673,13.561-7.734,27.154-8.647,39.84
						c-14.962,0.95-29.873,3.546-44.643,7.124c0.213-12.696,2.97-26.806,7.603-41.212C728.046,16.011,743.302,13.858,758.599,13.552
						z"/>
				</g>
				<g>
					<path style="fill:#19002A;" d="M776.5-25.38c-7.207,12.379-13.33,25.645-17.902,38.932
						c-15.297,0.306-30.552,2.459-45.687,5.752c4.612-14.395,11.11-29.064,18.824-42.911v-0.011
						C746.596-25.792,761.538-26.594,776.5-25.38z"/>
				</g>
				<g>
					<path style="fill:#FFFFFF;" d="M909.283,532.184c-14.526,0.507-28.992-1.847-43.467-5.351
						c2.311-14.965,2.382-30.299,0.294-45.306c14.992,3.62,29.985,5.984,45.028,5.213
						C912.74,501.874,912.142,517.261,909.283,532.184z"/>
				</g>
				<g>
					<path style="fill:#19002A;" d="M920.758-39.068c-10.998,11.482-19.919,25.17-26.356,40.051
						c-13.543-1.171-27.065-4.316-40.608-8.073c6.356-12.474,14.516-23.925,24.227-33.687C892.243-38.097,906.465-37,920.758-39.068
						z"/>
				</g>
				<g>
					<line style="fill:none;" x1="920.768" y1="-39.079" x2="920.758" y2="-39.068"/>
				</g>
				<g>
					<path style="fill:#19002A;" d="M911.138,486.74c-15.043,0.77-30.036-1.594-45.028-5.213
						c-1.825-13.055-5.302-25.867-10.39-37.951c-1.652-3.936-3.477-7.788-5.383-11.598c16.28,4.612,32.529,8.538,48.819,9.361
						c0.324,0.739,0.649,1.488,0.963,2.237C905.877,457.264,909.567,471.881,911.138,486.74z"/>
				</g>
				<g>
					<path style="fill:#FFFFFF;" d="M899.156,441.339c-16.29-0.823-32.539-4.749-48.819-9.361
						c-7.329-14.669-15.955-28.695-21.662-44.114c-1.024-2.765-1.936-5.551-2.747-8.38c16.411,4.717,32.732,9.962,49.062,13.276
						C881.924,409.478,891.878,424.759,899.156,441.339z"/>
				</g>
				<g>
					<path style="fill:#19002A;" d="M850.337,431.978c-17.172-4.865-34.394-10.501-51.769-14.089
						c-5.231-9.794-10.431-19.587-14.293-30.025c-2.21-5.973-3.933-12.116-5.17-18.353c1.45,0.137,2.899,0.295,4.349,0.475
						c14.263,1.762,28.393,5.446,42.474,9.498c0.811,2.828,1.723,5.615,2.747,8.38C834.382,403.283,843.008,417.309,850.337,431.978
						z"/>
				</g>
				<g>
					<path style="fill:#FFFFFF;" d="M825.928,379.485c-14.08-4.053-28.211-7.736-42.474-9.498c-1.449-0.18-2.899-0.338-4.349-0.475
						c-2.615-12.981-3.173-26.384-1.855-39.629c2.068,0.169,4.136,0.39,6.204,0.644c12.62,1.562,25.139,4.622,37.608,8.105
						C820.555,352.436,822.106,366.272,825.928,379.485z"/>
				</g>
				<g>
					<path style="fill:#19002A;" d="M874.99,392.761c-16.331-3.314-32.651-8.559-49.062-13.276
						c-3.822-13.213-5.373-27.049-4.866-40.853c14.891,4.169,29.701,8.96,44.511,12.548c0.689,12.527,3.143,24.917,7.491,36.684
						C873.672,389.511,874.321,391.147,874.99,392.761z"/>
				</g>
				<g>
					<path style="fill:#FFFFFF;" d="M865.573,351.18c-14.81-3.588-29.62-8.379-44.511-12.548
						c0.456-12.738,2.676-25.445,6.498-37.613c13.817,4.01,27.562,8.316,41.318,11.482
						C865.999,325.187,864.843,338.252,865.573,351.18z"/>
				</g>
				<g>
					<path style="fill:#19002A;" d="M779.105,369.512c-14.759-1.435-29.508-0.865-44.176,1.087
						c-2.696-12.812-3.376-26.046-2.22-39.154c14.79-2.1,29.661-2.839,44.541-1.562C775.933,343.128,776.49,356.531,779.105,369.512
						z"/>
				</g>
				<g>
					<path style="fill:#FFFFFF;" d="M786.536,291.468c-4.835,12.274-7.978,25.265-9.285,38.415
						c-14.881-1.277-29.752-0.538-44.541,1.562c1.216-13.92,4.521-27.682,9.681-40.631v-0.011
						c13.644-1.361,27.359-1.446,41.064,0.253C784.478,291.183,785.512,291.321,786.536,291.468z"/>
				</g>
				<g>
					<path style="fill:#19002A;" d="M701.822,219.24c-8.921,14.88-22.058,28.02-32.276,42.299c-1.967,2.744-3.832,5.572-5.585,8.474
						c-4.47,1.488-8.931,3.018-13.36,4.57c-11.708,4.084-23.436,8.295-35.236,12.274c3.883-8.949,8.667-17.466,14.293-25.318
						c6.477-9.044,14.121-17.624,21.125-26.489C667.529,229.213,684.579,223.588,701.822,219.24z"/>
				</g>
				<g>
					<path style="fill:#FFFFFF;" d="M750.489,211.219c-7.349,15.851-20.334,29.37-31.485,43.607v0.01
						c-18.571,3.63-36.959,9.118-55.043,15.176c1.754-2.902,3.619-5.73,5.585-8.474c10.218-14.279,23.355-27.418,32.276-42.299
						v-0.011C717.909,215.177,734.169,212.211,750.489,211.219z"/>
				</g>
				<g>
					<path style="fill:#19002A;" d="M742.39,290.814c-5.16,12.949-8.464,26.711-9.681,40.631
						c-15.084,2.142-30.086,5.709-44.916,10.005c0.223-14.015,2.585-28.041,6.893-41.401v-0.011
						C710.448,295.742,726.373,292.397,742.39,290.814z"/>
				</g>
				<g>
					<path style="fill:#19002A;" d="M719.004,254.837c-1.754,2.216-3.436,4.443-5.058,6.702c-8.332,11.63-14.83,24.716-19.26,38.499
						v0.011c-14.871,4.042-29.6,8.939-44.085,13.994c-1.46,0.507-2.919,1.024-4.379,1.53c3.264-16.105,9.285-31.65,17.74-45.56
						C682.045,263.955,700.433,258.467,719.004,254.837z"/>
				</g>
				<g>
					<path style="fill:#FFFFFF;" d="M766.951,250.373c-2.99,3.673-5.91,7.377-8.616,11.166c-6.447,9.002-11.799,18.87-15.945,29.265
						v0.011c-16.016,1.583-31.941,4.928-47.704,9.224c4.43-13.783,10.928-26.869,19.26-38.499c1.622-2.259,3.305-4.485,5.058-6.702
						v-0.01C734.888,251.724,750.905,249.961,766.951,250.373z"/>
				</g>
				<g>
					<path style="fill:#19002A;" d="M827.56,301.019c-3.822,12.168-6.042,24.875-6.498,37.613
						c-12.468-3.483-24.987-6.543-37.608-8.105c-2.068-0.253-4.136-0.475-6.204-0.644c1.308-13.15,4.45-26.141,9.285-38.415
						C800.302,293.431,813.956,297.083,827.56,301.019z"/>
				</g>
				<g>
					<path style="fill:#FFFFFF;" d="M843.85,266.34c-6.954,10.67-12.438,22.405-16.29,34.679
						c-13.604-3.936-27.258-7.588-41.024-9.551c4.176-10.638,9.61-20.738,16.199-29.93c1.338-1.868,2.727-3.725,4.166-5.562
						C819.278,258.964,831.574,262.752,843.85,266.34z"/>
				</g>
				<g>
					<path style="fill:#19002A;" d="M882.633,275.765c-6.224,11.482-10.877,23.904-13.756,36.737
						c-13.756-3.166-27.501-7.472-41.318-11.482c3.852-12.274,9.336-24.009,16.29-34.679
						C856.794,270.119,869.709,273.654,882.633,275.765z"/>
				</g>
				<g>
					<path style="fill:#FFFFFF;" d="M910.155,238.163c-6.285,7.778-12.914,15.398-18.631,23.376
						c-3.244,4.538-6.214,9.298-8.89,14.226c-12.924-2.111-25.839-5.646-38.784-9.424c1.064-1.625,2.159-3.229,3.284-4.802
						c6.812-9.509,14.911-18.511,22.19-27.861C882.917,236.78,896.51,238.743,910.155,238.163z"/>
				</g>
				<g>
					<path style="fill:#19002A;" d="M806.901,255.977c-1.439,1.836-2.828,3.694-4.166,5.562
						c-6.589,9.192-12.022,19.292-16.199,29.93c-1.024-0.148-2.058-0.285-3.082-0.412c-13.705-1.699-27.42-1.615-41.064-0.253
						c4.146-10.395,9.498-20.263,15.945-29.265c2.706-3.789,5.626-7.493,8.616-11.166c5.494,0.137,10.999,0.528,16.503,1.214
						C791.3,252.557,799.116,254.109,806.901,255.977z"/>
				</g>
				<g>
					<path style="fill:#FFFFFF;" d="M832.324,223.482c-7.461,11.261-17.04,21.645-25.423,32.494
						c-7.785-1.868-15.601-3.419-23.447-4.39c-5.504-0.686-11.009-1.076-16.503-1.214c9.66-11.894,20.061-23.524,26.731-36.673
						C806.637,216.074,819.501,219.715,832.324,223.482z"/>
				</g>
				<g>
					<path style="fill:#19002A;" d="M793.682,213.699c-6.67,13.15-17.07,24.78-26.731,36.673
						c-16.047-0.412-32.063,1.351-47.947,4.454c11.151-14.237,24.136-27.756,31.485-43.607c10.968-0.675,21.967-0.454,32.965,0.908
						C786.87,212.549,790.276,213.087,793.682,213.699z"/>
				</g>
				<g>
					<path style="fill:#FFFFFF;" d="M800.312,192.761c-0.932,7.504-3.315,14.416-6.63,20.938c-3.406-0.612-6.812-1.15-10.228-1.572
						c-10.998-1.361-21.997-1.583-32.965-0.908c2.686-5.794,4.612-11.894,5.423-18.458c0.882-7.145,0.314-14.279-1.328-21.213
						c9.61-0.401,19.24-0.085,28.87,1.108c5.464,0.675,10.907,1.636,16.331,2.786C800.788,181.142,801.031,186.946,800.312,192.761z
						"/>
				</g>
				<g>
					<path style="fill:#FFFFFF;" d="M888.289,197.648c-2.869,13.435-10.35,24.97-18.966,36.03
						c-12.316-2.818-24.632-6.564-36.999-10.195c6.224-9.372,10.978-19.355,12.387-30.721c0.203-1.667,0.334-3.324,0.385-4.992
						C859.511,191.959,873.885,195.811,888.289,197.648z"/>
				</g>
				<g>
					<path style="fill:#19002A;" d="M933.155,195.083c-2.717,16.4-12.377,29.951-23.001,43.08
						c-13.644,0.58-27.238-1.383-40.831-4.485c8.616-11.06,16.097-22.595,18.966-36.03c12.651,1.636,25.322,1.71,38.054-0.887
						C928.634,196.297,930.905,195.737,933.155,195.083z"/>
				</g>
				<g>
					<path style="fill:#FFFFFF;" d="M933.5,192.761c-0.091,0.781-0.203,1.551-0.345,2.322c-2.25,0.654-4.521,1.214-6.812,1.678
						c-12.732,2.596-25.403,2.522-38.054,0.887c0.335-1.604,0.618-3.229,0.821-4.886c1.5-12.105-1.196-24.199-6.193-35.354
						c14.445,2.332,28.89,2.849,43.426-0.116c0.284-0.053,0.557-0.116,0.841-0.179C932.263,168.351,935.021,180.54,933.5,192.761z"
						/>
				</g>
				<g>
					<path style="fill:#19002A;" d="M845.096,187.769c-0.051,1.667-0.182,3.324-0.385,4.992
						c-1.409,11.366-6.163,21.35-12.387,30.721c-12.823-3.768-25.687-7.409-38.642-9.783c3.315-6.522,5.697-13.435,6.63-20.938
						c0.72-5.815,0.477-11.619-0.527-17.318C814.98,178.662,830.063,183.4,845.096,187.769z"/>
				</g>
				<g>
					<path style="fill:#FFFFFF;" d="M845.096,187.769c-15.033-4.369-30.117-9.108-45.312-12.327
						c-2.281-12.981-8.485-25.413-16.138-36.114c-1.622-2.258-3.305-4.464-5.018-6.659c1.612,0.148,3.213,0.327,4.825,0.528
						c16.107,1.995,32.063,6.427,47.937,11.081C839.714,157.301,845.573,172.424,845.096,187.769z"/>
				</g>
				<g>
					<path style="fill:#19002A;" d="M755.912,192.761c-0.811,6.564-2.737,12.664-5.423,18.458c-16.32,0.992-32.58,3.958-48.667,8.01
						c4.886-8.147,8.505-16.801,9.701-26.468c0.629-5.108,0.517-10.216-0.203-15.25c14.333-3.198,28.779-5.382,43.264-5.963
						C756.227,178.482,756.794,185.617,755.912,192.761z"/>
				</g>
				<g>
					<path style="fill:#19002A;" d="M671.989,188.434c0.558-12.622-3.224-25.117-9.174-36.431
						c11.12-3.747,22.362-7.282,33.695-10.311c7.268,10.733,12.985,23.038,14.81,35.819
						C698.092,180.456,684.964,184.255,671.989,188.434z"/>
				</g>
				<g>
					<path style="fill:#FFFFFF;" d="M754.584,171.549c-14.486,0.58-28.931,2.765-43.264,5.963
						c-1.825-12.78-7.542-25.086-14.81-35.819c12.773-3.419,25.646-6.206,38.591-7.905c1.409,1.826,2.798,3.662,4.146,5.541
						C746.13,148.954,751.847,159.982,754.584,171.549z"/>
				</g>
				<g>
					<path style="fill:#19002A;" d="M799.785,175.443c-5.423-1.15-10.867-2.111-16.331-2.786c-9.63-1.193-19.26-1.509-28.87-1.108
						c-2.737-11.567-8.454-22.595-15.337-32.22c-1.348-1.879-2.737-3.715-4.146-5.541c14.455-1.91,28.991-2.48,43.528-1.119
						c1.713,2.195,3.396,4.401,5.018,6.659C791.3,150.03,797.504,162.462,799.785,175.443z"/>
				</g>
				<g>
					<path style="fill:#FFFFFF;" d="M778.629,132.669c-14.536-1.361-29.073-0.792-43.528,1.119
						c-6.609-8.538-13.725-16.696-18.885-26.236c-1.591-2.944-2.98-5.994-4.187-9.129c14.05-3.103,28.201-5.224,42.392-5.805
						c1.591,5.182,3.629,10.195,6.194,14.933C765.542,116.67,772.263,124.533,778.629,132.669z"/>
				</g>
				<g>
					<path style="fill:#19002A;" d="M889.111,192.761c-0.203,1.657-0.487,3.282-0.821,4.886
						c-14.404-1.836-28.779-5.688-43.193-9.878c0.476-15.345-5.383-30.468-13.705-43.491c17.233,5.055,34.374,10.364,51.526,13.129
						C887.914,168.562,890.611,180.656,889.111,192.761z"/>
				</g>
				<g>
					<path style="fill:#FFFFFF;" d="M882.917,157.407c-17.152-2.765-34.293-8.074-51.526-13.129
						c-1.074-1.689-2.189-3.335-3.345-4.95c-7.623-10.649-16.776-20.2-23.031-31.777c-1.906-3.514-3.517-7.187-4.876-10.965
						c17.111,3.652,34.07,9.213,50.988,13.973v0.011c6.143,10.258,14.364,19.049,21.308,28.758
						C876.45,144.933,880.058,151.022,882.917,157.407z"/>
				</g>
				<g>
					<path style="fill:#19002A;" d="M927.185,157.111c-0.284,0.063-0.558,0.127-0.841,0.179
						c-14.536,2.966-28.981,2.449-43.426,0.116c-2.859-6.385-6.468-12.474-10.482-18.078c-6.944-9.709-15.165-18.5-21.308-28.758
						c16.888,4.76,33.736,8.728,50.644,9.234c4.896,6.585,10.279,12.844,15.063,19.524
						C920.788,144.848,924.346,150.832,927.185,157.111z"/>
				</g>
				<g>
					<path style="fill:#FFFFFF;" d="M851.128,110.57v-0.011c-0.598-0.992-1.166-1.984-1.723-3.008
						c-6.123-11.334-9.235-24.241-10.532-37.18c-0.101-0.971-0.182-1.931-0.253-2.902c15.286,4.506,30.512,8.907,45.758,11.24
						c1.662,10.089,4.612,19.946,9.427,28.843c2.331,4.316,5.068,8.337,7.967,12.253C884.863,119.298,868.016,115.33,851.128,110.57
						z"/>
				</g>
				<g>
					<path style="fill:#19002A;" d="M831.391,144.278c-15.874-4.654-31.83-9.087-47.937-11.081c-1.612-0.201-3.213-0.38-4.825-0.528
						c-6.366-8.137-13.087-15.999-18.013-25.118c-2.565-4.739-4.602-9.751-6.194-14.933c9.661-0.401,19.351-0.095,29.032,1.108
						c5.575,0.697,11.14,1.678,16.685,2.86c1.358,3.778,2.97,7.451,4.876,10.965c6.255,11.577,15.408,21.128,23.031,31.777
						C829.202,140.943,830.317,142.59,831.391,144.278z"/>
				</g>
				<g>
					<path style="fill:#19002A;" d="M754.422,92.619c-14.192,0.581-28.343,2.702-42.392,5.805
						c-3.436-8.918-5.383-18.479-6.346-28.051c-0.314-3.166-0.436-6.459-0.375-9.857c14.769-3.578,29.681-6.174,44.643-7.124
						c-0.436,5.889-0.406,11.577,0.132,16.981C750.834,77.896,752.202,85.421,754.422,92.619z"/>
				</g>
				<g>
					<path style="fill:#FFFFFF;" d="M800.139,96.587c-5.545-1.182-11.11-2.164-16.685-2.86c-9.681-1.203-19.371-1.509-29.032-1.108
						c-2.22-7.197-3.588-14.722-4.339-22.247c-0.537-5.403-0.568-11.092-0.132-16.981c11.14-0.718,22.321-0.517,33.502,0.865
						c3.467,0.433,6.934,0.971,10.39,1.604c-0.051,4.844,0.152,9.688,0.639,14.511C795.375,79.29,797.129,88.197,800.139,96.587z"/>
				</g>
				<g>
					<path style="fill:#19002A;" d="M851.128,110.56c-16.918-4.76-33.877-10.321-50.988-13.973
						c-3.011-8.39-4.764-17.297-5.656-26.215c-0.487-4.823-0.689-9.667-0.639-14.511c15.023,2.754,29.924,7.229,44.774,11.609
						c0.071,0.971,0.152,1.931,0.253,2.902c1.298,12.939,4.409,25.846,10.532,37.18C849.962,108.576,850.53,109.568,851.128,110.56z
						"/>
				</g>
				<g>
					<path style="fill:#FFFFFF;" d="M838.619,67.47c-14.85-4.38-29.752-8.854-44.774-11.609c0.122-12.97,2.119-25.909,5.768-38.32
						c13.938,2.944,27.785,7.176,41.581,11.229C838.538,41.455,837.615,54.531,838.619,67.47z"/>
				</g>
				<g>
					<path style="fill:#19002A;" d="M884.377,78.709c-15.246-2.332-30.471-6.733-45.758-11.24
						c-1.003-12.939-0.081-26.014,2.575-38.7c14.232,4.179,28.424,8.168,42.625,10.385c-1.368,10.332-1.581,20.833-0.547,31.217
						C883.545,73.158,883.911,75.944,884.377,78.709z"/>
				</g>
				<g>
					<path style="fill:#19002A;" d="M853.794-7.091c-5.738,11.271-10.005,23.387-12.6,35.861
						c-13.796-4.053-27.643-8.285-41.581-11.229c3.7-12.58,9.103-24.611,16.016-35.587C828.401-14.626,841.103-10.595,853.794-7.091
						z"/>
				</g>
				<g>
					<path style="fill:#FFFFFF;" d="M894.402,0.982c-5.251,12.115-8.849,25.012-10.583,38.172
						c-14.202-2.216-28.393-6.205-42.625-10.385c2.595-12.474,6.863-24.59,12.6-35.861C867.337-3.334,880.859-0.189,894.402,0.982z"
						/>
				</g>
				<g>
					<path style="fill:#19002A;" d="M869.323,233.677c-7.278,9.35-15.378,18.353-22.19,27.861c-1.125,1.572-2.22,3.177-3.284,4.802
						c-12.276-3.588-24.572-7.377-36.949-10.364c8.383-10.849,17.963-21.234,25.423-32.494
						C844.691,227.113,857.007,230.859,869.323,233.677z"/>
				</g>
			</g>
			<g>
				<g>
					<path style="fill:#19002A;" d="M222.087,145.475c-11.02,2.945-21.951,6.383-32.764,10.026
						c-2.267-4.31-4.849-8.435-7.629-12.324c-4.534-6.332-9.62-12.263-14.273-18.482c3.351-1.17,6.683-2.35,10.024-3.509
						c7.136-2.483,14.322-4.936,21.566-7.255c6.032,10.529,14.42,19.405,21.468,29.246
						C221.022,143.936,221.554,144.706,222.087,145.475z"/>
				</g>
				<g>
					<path style="fill:#19002A;" d="M167.421,124.695c-11.296,3.982-22.641,7.984-34.045,11.668
						c-6.101-7.789-12.528-15.341-17.249-24.085c-1.39-2.576-2.632-5.233-3.706-7.953c13.178-3.653,26.248-7.974,39.249-12.468
						c1.705,7.132,4.169,14.028,7.629,20.421C161.665,116.66,164.454,120.734,167.421,124.695z"/>
				</g>
				<g>
					<path style="fill:#19002A;" d="M337.913-9.849c-6.722,10.672-11.976,22.371-15.573,34.603
						c-5.224-1.098-10.458-2.021-15.712-2.668c-8.063-0.996-16.126-1.365-24.169-1.211c4.445-12.92,10.399-25.819,17.407-37.856
						c2.257,0.174,4.504,0.41,6.762,0.688C317.115-14.99,327.534-12.63,337.913-9.849z"/>
				</g>
				<g>
					<path style="fill:#19002A;" d="M62.644,75.428c-4.367,0.38-8.743,0.626-13.139,0.718c-9.995,0.205-20.167-0.554-30.171-2.309
						c-1.035-12.694-0.158-25.521,2.415-37.979c9.226,1.478,18.56,2.093,27.756,1.909c5.096-0.103,10.172-0.41,15.219-0.903
						C62.191,49.516,61.432,62.549,62.644,75.428z"/>
				</g>
				<g>
					<path style="fill:#19002A;" d="M130.754-16.293c-9.492,13.299-16.589,28.518-20.857,44.547
						c-14.894,4.012-29.935,7.132-45.173,8.61C67.543,22.723,72.56,9.044,79.48-3.445C96.788-6.257,113.85-10.895,130.754-16.293z"
						/>
				</g>
				<g>
					<path style="fill:#FFFFFF;" d="M73.152,112.627c-7.826,1.067-15.712,1.724-23.646,1.888c-6.16,0.123-12.577-0.267-19.102-1.139
						c-0.207-0.359-0.414-0.729-0.611-1.098c-5.963-11.021-8.989-23.572-10.251-36.152c-0.079-0.759-0.148-1.529-0.207-2.288
						c10.004,1.755,20.177,2.514,30.171,2.309c4.396-0.092,8.772-0.339,13.139-0.718c0.02,0.236,0.049,0.462,0.069,0.698
						c1.262,12.581,4.278,25.131,10.241,36.152C73.014,112.391,73.083,112.514,73.152,112.627z"/>
				</g>
				<g>
					<path style="fill:#FFFFFF;" d="M79.48-3.445C72.56,9.044,67.543,22.723,64.724,36.863c-5.047,0.493-10.123,0.801-15.219,0.903
						c-9.196,0.185-18.531-0.431-27.756-1.909C24.42,23,28.905,10.532,34.986-0.993c4.849,0.359,9.709,0.482,14.519,0.38
						C59.589-0.818,69.574-1.834,79.48-3.445z"/>
				</g>
				<g>
					<path style="fill:#19002A;" d="M234.102-49.408c-10.744,13.33-20.522,29.339-28.318,46.086
						c-9.531,2.925-18.984,6.126-28.338,9.389c-6.427,2.237-12.853,4.515-19.299,6.763c7.678-19.477,19.684-37.066,35.09-50.519
						C206.7-42.143,220.342-46.227,234.102-49.408z"/>
				</g>
				<g>
					<path style="fill:#19002A;" d="M325.07-51.399c-9.196,9.841-17.791,21.653-25.204,34.418c-14.549-1.18-29.077-0.4-43.527,1.714
						c8.408-15.085,18.294-29.144,28.762-40.627c7.166-0.041,14.351,0.339,21.527,1.231
						C312.798-53.893,318.939-52.764,325.07-51.399z"/>
				</g>
				<g>
					<path style="fill:#FFFFFF;" d="M259.611,137.789c-12.587,1.652-25.105,4.361-37.524,7.686c-0.532-0.77-1.064-1.539-1.607-2.299
						c-7.048-9.841-15.436-18.718-21.468-29.246c12.597-4.043,25.332-7.707,38.165-10.529c1.173,3.048,2.523,6.014,4.071,8.877
						C246.265,121.555,253.185,129.487,259.611,137.789z"/>
				</g>
				<g>
					<path style="fill:#FFFFFF;" d="M285.101-55.894c-10.468,11.483-20.354,25.542-28.762,40.627v0.01
						c-17.013,2.473-33.897,6.804-50.555,11.935c7.797-16.747,17.574-32.756,28.318-46.086
						C250.967-53.297,268.009-55.811,285.101-55.894z"/>
				</g>
				<g>
					<path style="fill:#19002A;" d="M398.581-31.953c-9.443,9.492-17.377,20.626-23.557,32.756
						c-12.341-3.407-24.691-7.327-37.111-10.652c7.324-11.668,16.392-22.094,26.929-30.632
						C376.108-37.186,387.344-34.067,398.581-31.953z"/>
				</g>
				<g>
					<line style="fill:none;" x1="440.147" y1="-30.3" x2="440.137" y2="-30.29"/>
				</g>
				<g>
					<path style="fill:#FFFFFF;" d="M322.339,24.754c-3.548,12.068-5.49,24.649-5.608,37.261c-3.361-0.616-6.732-1.139-10.103-1.56
						c-10.872-1.344-21.744-1.539-32.576-0.841c0.887-12.335,3.864-25.552,8.408-38.739c8.043-0.154,16.106,0.215,24.169,1.211
						C311.881,22.733,317.115,23.656,322.339,24.754z"/>
				</g>
				<g>
					<path style="fill:#FFFFFF;" d="M364.841-40.48c-10.537,8.538-19.605,18.964-26.929,30.632
						c-10.379-2.781-20.798-5.141-31.285-6.444c-2.257-0.277-4.505-0.513-6.762-0.688c7.412-12.766,16.007-24.577,25.204-34.418
						C338.396-48.423,351.643-44.328,364.841-40.48z"/>
				</g>
				<g>
					<path style="fill:#FFFFFF;" d="M189.323,155.501c-3.982,1.324-7.935,2.689-11.877,4.064c-8.546,2.976-17.111,6.034-25.706,9
						c-2.977-9.072-7.708-17.691-13.218-25.388c-1.656-2.309-3.391-4.577-5.145-6.814c11.404-3.684,22.749-7.686,34.045-11.668
						c4.652,6.219,9.738,12.15,14.273,18.482C184.473,147.066,187.056,151.191,189.323,155.501z"/>
				</g>
				<g>
					<path style="fill:#FFFFFF;" d="M151.67,91.857c-13.001,4.495-26.071,8.815-39.249,12.468c-3.578-8.928-5.579-18.553-6.535-28.2
						c-0.276-2.761-0.463-5.521-0.552-8.292c14.588-3.735,29.028-8.415,43.389-13.34c-0.483,7.204-0.384,14.438,0.335,21.632
						C149.59,81.41,150.428,86.695,151.67,91.857z"/>
				</g>
				<g>
					<path style="fill:#FFFFFF;" d="M193.236-37.689c-15.406,13.453-27.411,31.042-35.09,50.519v0.01
						c-15.958,5.583-32.015,11.042-48.248,15.413c4.268-16.029,11.365-31.247,20.857-44.547
						c15.672-4.987,31.206-10.621,46.691-16.019C182.679-34.138,187.943-35.944,193.236-37.689z"/>
				</g>
				<g>
					<path style="fill:#19002A;" d="M321.324,414.039c-4.889-1.006-9.788-1.847-14.696-2.453
						c-10.113-1.252-20.226-1.508-30.309-0.985c-4.445-8.384-8.753-16.829-12.065-25.757c-2.021-5.47-3.627-11.083-4.81-16.788
						c14.263-1.898,28.604-2.453,42.956-1.057c1.202,6.065,2.878,12.037,5.027,17.845
						C311.181,394.993,316.238,404.516,321.324,414.039z"/>
				</g>
				<g>
					<path style="fill:#19002A;" d="M87.217,549.67c-12.439,2.411-24.997,3.961-37.712,4.218c-4.189,0.082-8.408,0-12.636-0.257
						c2.139-13.125,3.923-28.497,4.869-43.921c1.735,0.062,3.479,0.082,5.214,0.072c0.848,0.01,1.705,0,2.553-0.021
						c13.474-0.277,26.791-1.991,39.969-4.659C89.79,520.844,89.001,536.514,87.217,549.67z"/>
				</g>
				<g>
					<path style="fill:#FFFFFF;" d="M41.738,509.71c-0.946,15.424-2.73,30.796-4.869,43.921
						c-14.036-0.841-28.131-3.581-41.398-8.292c4.278-17.579,8.447-35.875,8.694-41.345
						C16.387,507.473,29.122,509.361,41.738,509.71z"/>
				</g>
				<g>
					<path style="fill:#19002A;" d="M132.479,493.527c-13.888,4.474-27.885,8.466-42.029,11.38c-0.325,0.072-0.65,0.133-0.976,0.195
						c-0.306-15.095-1.617-30.252-4.041-43.336c13.809-2.576,27.461-6.249,41.014-10.457
						C129.877,463.798,131.839,478.565,132.479,493.527z"/>
				</g>
				<g>
					<path style="fill:#19002A;" d="M174.735,523.122h-0.01c-14.716,5.151-29.482,10.467-44.365,15.208
						c2.03-13.638,2.78-29.328,2.119-44.803c0.434-0.133,0.857-0.267,1.291-0.41c14.125-4.577,28.141-9.626,42.118-14.51
						C177.682,493.394,177.317,508.468,174.735,523.122z"/>
				</g>
				<g>
					<path style="fill:#FFFFFF;" d="M130.36,538.331c-14.253,4.526-28.614,8.528-43.143,11.339
						c1.784-13.156,2.573-28.826,2.257-44.567c0.325-0.062,0.651-0.123,0.976-0.195c14.144-2.914,28.141-6.906,42.029-11.38
						C133.14,509.002,132.39,524.692,130.36,538.331z"/>
				</g>
				<g>
					<path style="fill:#19002A;" d="M212.713,466.59c-11.877,3.469-23.646,7.419-35.267,11.473
						c-0.522,0.185-1.035,0.359-1.557,0.544c-1.656-13.628-5.155-27.009-10.448-39.59c-0.108-0.246-0.207-0.503-0.315-0.749
						c4.12-1.447,8.22-2.894,12.321-4.331c6.979-2.432,14.006-4.823,21.084-7.101c2.021,4.002,3.943,8.045,5.687,12.181
						C207.952,447.872,210.791,457.128,212.713,466.59z"/>
				</g>
				<g>
					<path style="fill:#FFFFFF;" d="M215.226,509.987c-12.735,3.633-25.342,7.85-37.781,12.191
						c-0.907,0.318-1.804,0.636-2.711,0.944c2.583-14.654,2.947-29.729,1.153-44.516c0.523-0.185,1.035-0.359,1.557-0.544
						c11.621-4.053,23.39-8.004,35.267-11.473C215.621,480.813,216.478,495.497,215.226,509.987z"/>
				</g>
				<g>
					<path style="fill:#19002A;" d="M344.882,508.191c-12.686-3.592-25.421-6.773-38.254-8.363
						c-1.508-0.185-3.016-0.349-4.524-0.493c0.227-15.075-1.784-30.18-5.973-44.588c3.499,0.205,6.998,0.523,10.497,0.954
						c11.69,1.447,23.291,4.218,34.844,7.409C344.842,477.827,345.995,493.106,344.882,508.191z"/>
				</g>
				<g>
					<path style="fill:#FFFFFF;" d="M276.318,410.601c-13.435,0.698-26.82,2.791-40.097,5.767
						c-5.49-10.303-11.079-20.544-15.14-31.524c-0.986-2.678-1.883-5.387-2.661-8.128c13.563-3.766,27.254-6.834,41.024-8.661
						c1.183,5.706,2.789,11.319,4.81,16.788C267.565,393.772,271.873,402.217,276.318,410.601z"/>
				</g>
				<g>
					<path style="fill:#FFFFFF;" d="M302.103,499.335c-14.43-1.375-28.861-0.78-43.202,1.16c0.345-14.613-1.429-29.287-5.273-43.346
						c14.105-2.227,28.299-3.222,42.502-2.401C300.319,469.155,302.33,484.261,302.103,499.335z"/>
				</g>
				<g>
					<path style="fill:#19002A;" d="M386.999,475.918c-15.14-3.643-30.29-8.599-45.528-12.807
						c-1.883-8.25-4.465-16.327-7.738-24.095c-3.617-8.579-8.023-16.778-12.409-24.978c16.894,3.489,33.641,8.969,50.338,13.7
						c1.853,3.704,3.628,7.45,5.234,11.278C381.844,450.766,385.225,463.224,386.999,475.918z"/>
				</g>
				<g>
					<path style="fill:#FFFFFF;" d="M386.714,519.972c-13.918-3.366-27.845-7.819-41.832-11.781
						c1.114-15.085-0.039-30.365-3.41-45.08c15.238,4.207,30.388,9.164,45.528,12.807
						C389.03,490.51,388.961,505.421,386.714,519.972z"/>
				</g>
				<g>
					<path style="fill:#19002A;" d="M-0.655,458.401c-19.053-5.613-37.702-14.408-52.743-26.055
						c-7.54-15.967-17.18-30.898-23.321-47.502c-2.711-7.348-4.672-14.931-5.894-22.648c15.13,13.022,34.627,25.603,54.705,35.793
						c6.614,13.802,14.716,26.886,20.67,41.027C-4.598,445.296-2.4,451.782-0.655,458.401z"/>
				</g>
				<g>
					<path style="fill:#FFFFFF;" d="M4.164,503.994c-15.919-4.526-30.97-11.75-43.744-21.817
						c-1.449-14.859-5.076-29.482-10.832-43.161c-0.946-2.247-1.952-4.464-2.987-6.67c15.041,11.647,33.69,20.442,52.743,26.055
						C3.238,473.198,4.864,488.653,4.164,503.994z"/>
				</g>
				<g>
					<path style="fill:#19002A;" d="M4.164,503.994c-0.246,5.47-4.416,23.766-8.694,41.345
						c-13.445-4.772-26.042-11.586-36.894-20.534c2.642-14.007,3.243-28.425,1.843-42.628
						C-26.805,492.244-11.754,499.469,4.164,503.994z"/>
				</g>
				<g>
					<path style="fill:#19002A;" d="M-40.753,350.61c-15.258-9.02-29.787-19.169-41.861-29.462
						c1.567-10.221,4.278-20.277,8.043-29.883c10.694,8.599,23.094,16.86,36.105,24.208
						C-40.733,327.049-41.531,338.901-40.753,350.61z"/>
				</g>
				<g>
					<path style="fill:#19002A;" d="M-11.646,256.724c-1.36,1.744-2.681,3.51-3.953,5.285c-5.352,7.471-9.926,15.547-13.652,24.044
						c-10.882-6.763-20.591-15.249-28.427-25.542c5.254-7.152,11.197-14.038,16.875-21.047
						C-32.049,246.565-22.173,252.301-11.646,256.724z"/>
				</g>
				<g>
					<path style="fill:#19002A;" d="M13.144,149.375c-29.61-6.455-57.208-21.817-74.152-47.02
						c-3.105-8.363-4.889-17.291-5.786-26.229c-0.532-5.295-0.72-10.621-0.591-15.937c11.838,15.598,29.028,28.538,48.081,37.877
						c1.538,4.936,3.489,9.697,5.924,14.213c6.082,11.257,14.982,20.544,22.394,30.899
						C10.453,145.188,11.833,147.251,13.144,149.375z"/>
				</g>
				<g>
					<path style="fill:#19002A;" d="M-18.25,23.482c-3.479,11.421-5.51,23.325-5.924,35.291
						c-14.972-8.312-28.032-19.672-37.554-34.264c2.592-8.753,6.032-17.24,10.251-25.265C-42.083,9.362-30.719,17.417-18.25,23.482z
						"/>
				</g>
				<g>
					<path style="fill:#FFFFFF;" d="M-3.691-8.853C-9.872,1.173-14.78,12.091-18.25,23.482
						c-12.469-6.065-23.834-14.12-33.227-24.239c4.554-8.661,10.005-16.799,16.273-24.156C-25.632-18.109-14.948-12.773-3.691-8.853
						z"/>
				</g>
				<g>
					<path style="fill:#FFFFFF;" d="M-19.304,98.065c-19.053-9.338-36.243-22.279-48.081-37.877
						c0.286-12.078,2.228-24.115,5.658-35.681c9.522,14.592,22.582,25.952,37.554,34.264c-0.207,5.788-0.02,11.586,0.552,17.353
						C-22.882,83.555-21.522,90.974-19.304,98.065z"/>
				</g>
				<g>
					<path style="fill:#FFFFFF;" d="M25.603,189.919c-15.396-2.042-30.566-6.393-44.365-13.187
						c-2.425-12.058-8.26-23.582-15.396-33.556c-7.412-10.354-16.303-19.641-22.394-30.899c-1.725-3.191-3.203-6.506-4.455-9.923
						c16.944,25.203,44.542,40.565,74.152,47.02C20.704,161.617,25.958,175.655,25.603,189.919z"/>
				</g>
				<g>
					<path style="fill:#FFFFFF;" d="M12.523,225.99c-7.195,10.611-16.234,20.462-24.169,30.734
						c-10.527-4.423-20.403-10.159-29.156-17.261c6.85-8.466,13.316-17.107,17.683-26.609
						C-12.04,218.868,0.054,223.219,12.523,225.99z"/>
				</g>
				<g>
					<path style="fill:#FFFFFF;" d="M-29.25,286.053c-4.13,9.4-7.235,19.303-9.216,29.421
						c-13.011-7.348-25.411-15.608-36.105-24.208c4.061-10.395,9.374-20.267,15.8-29.257c0.365-0.503,0.72-1.006,1.094-1.498
						C-49.84,270.803-40.132,279.29-29.25,286.053z"/>
				</g>
				<g>
					<path style="fill:#FFFFFF;" d="M-27.909,397.989c-20.078-10.19-39.575-22.771-54.705-35.793c-2.169-13.525-2.1-27.43,0-41.048
						c12.075,10.293,26.603,20.442,41.861,29.462c0.779,11.688,3.144,23.243,7.205,34.234
						C-31.891,389.328-29.979,393.689-27.909,397.989z"/>
				</g>
				<g>
					<path style="fill:#19002A;" d="M25.948,418.574c-16.48-3.838-35.405-11.206-53.857-20.585c-2.07-4.3-3.982-8.661-5.638-13.145
						c-4.061-10.99-6.427-22.545-7.205-34.234c15.446,9.133,31.65,17.107,46.829,22.864c0.986,3.848,2.168,7.635,3.548,11.37
						C13.972,396.604,20.083,407.533,25.948,418.574z"/>
				</g>
				<g>
					<path style="fill:#19002A;" d="M8.137,301.702c-3.243,10.693-5.214,21.776-5.815,32.92
						c-13.425-5.008-27.421-11.596-40.787-19.149c1.981-10.118,5.086-20.021,9.216-29.421
						C-17.826,293.143-5.101,298.326,8.137,301.702z"/>
				</g>
				<g>
					<path style="fill:#19002A;" d="M53.211,229.53c-8.014,11.062-17.722,21.417-25.637,32.479c-1.064,1.478-2.09,2.986-3.095,4.515
						c-12.4-1.734-24.642-4.987-36.125-9.8c7.935-10.272,16.973-20.124,24.169-30.734c12.173,2.709,24.701,3.91,36.982,3.653
						C50.737,229.623,51.979,229.581,53.211,229.53z"/>
				</g>
				<g>
					<path style="fill:#19002A;" d="M25.603,189.919c-0.039,1.744-0.177,3.468-0.384,5.213
						c-1.419,11.452-6.328,21.458-12.695,30.857c-12.469-2.771-24.563-7.122-35.642-13.135c2.553-5.562,4.386-11.432,5.165-17.722
						c0.769-6.178,0.414-12.355-0.808-18.4C-4.963,183.526,10.207,187.877,25.603,189.919z"/>
				</g>
				<g>
					<path style="fill:#19002A;" d="M68.765,189.93c-6.387,0.739-12.804,1.201-19.26,1.334c-7.915,0.164-15.938-0.277-23.903-1.344
						c0.355-14.264-4.899-28.302-12.459-40.545c11.976,2.617,24.297,3.766,36.361,3.52c2.898-0.062,5.786-0.185,8.674-0.38
						C64.724,163.988,69.101,176.866,68.765,189.93z"/>
				</g>
				<g>
					<path style="fill:#19002A;" d="M30.403,113.376c-16.5-2.206-33.749-7.501-49.707-15.311c-2.218-7.091-3.578-14.51-4.317-21.94
						c-0.572-5.767-0.759-11.565-0.552-17.353c13.356,7.419,28.249,12.396,43.508,15.064c0.059,0.759,0.128,1.529,0.207,2.288
						c1.262,12.581,4.288,25.131,10.251,36.152C29.989,112.647,30.196,113.017,30.403,113.376z"/>
				</g>
				<g>
					<path style="fill:#19002A;" d="M41.738,509.71c-12.617-0.349-25.352-2.237-37.574-5.716c0.7-15.342-0.927-30.796-4.82-45.594
						c14.292,4.218,28.821,6.65,42.206,7.163C42.783,478.883,42.684,494.328,41.738,509.71z"/>
				</g>
				<g>
					<path style="fill:#FFFFFF;" d="M89.474,505.103c-13.178,2.668-26.495,4.382-39.969,4.659c-0.848,0.021-1.705,0.031-2.553,0.021
						c-1.735,0.01-3.479-0.01-5.214-0.072c0.946-15.383,1.045-30.827-0.187-44.147c2.701,0.113,5.352,0.133,7.954,0.082
						c12.104-0.246,24.07-1.662,35.928-3.879C87.858,474.85,89.169,490.007,89.474,505.103z"/>
				</g>
				<g>
					<path style="fill:#FFFFFF;" d="M41.551,465.564c-13.385-0.513-27.914-2.945-42.206-7.163
						c-1.745-6.619-3.943-13.104-6.584-19.385c-5.954-14.141-14.056-27.225-20.67-41.027c18.452,9.379,37.377,16.747,53.857,20.585
						c3.558,6.701,7.028,13.443,9.975,20.442C38.791,445.83,40.585,455.035,41.551,465.564z"/>
				</g>
				<g>
					<path style="fill:#19002A;" d="M85.433,461.767c-11.858,2.217-23.824,3.633-35.928,3.879c-2.602,0.051-5.254,0.031-7.954-0.082
						c-0.966-10.529-2.76-19.734-5.628-26.547c-2.947-6.999-6.417-13.741-9.975-20.442c8.674,2.032,16.668,3.089,23.558,2.945
						c6.841-0.144,13.632-0.646,20.394-1.467c3.282,6.219,6.466,12.478,9.196,18.964C81.717,445.255,83.826,453.044,85.433,461.767z
						"/>
				</g>
				<g>
					<path style="fill:#FFFFFF;" d="M6.077,373.474c-15.179-5.757-31.384-13.73-46.829-22.864
						c-0.779-11.709,0.02-23.561,2.287-35.137c13.366,7.553,27.362,14.141,40.787,19.149C1.621,347.706,2.804,360.851,6.077,373.474
						z"/>
				</g>
				<g>
					<path style="fill:#19002A;" d="M52.157,383.068c-0.887,0.031-1.764,0.051-2.652,0.072c-11.769,0.246-26.998-3.417-43.429-9.667
						c-3.272-12.622-4.455-25.768-3.755-38.851c15.771,5.88,30.753,9.574,43.005,10.087
						C45.602,357.773,47.82,370.764,52.157,383.068z"/>
				</g>
				<g>
					<path style="fill:#FFFFFF;" d="M24.479,266.524c-7.057,10.796-12.557,22.71-16.342,35.178
						c-13.237-3.376-25.962-8.559-37.386-15.649c3.726-8.497,8.299-16.573,13.652-24.044c1.272-1.775,2.592-3.54,3.953-5.285
						C-0.163,261.537,12.079,264.79,24.479,266.524z"/>
				</g>
				<g>
					<path style="fill:#19002A;" d="M67.454,266.832c-7.836,12.058-13.74,25.501-17.466,39.549c-0.158,0-0.325,0.01-0.483,0.01
						c-13.76,0.277-27.825-1.252-41.369-4.69c3.785-12.468,9.285-24.382,16.342-35.178c8.339,1.18,16.737,1.663,25.026,1.498
						C55.518,267.899,61.501,267.489,67.454,266.832z"/>
				</g>
				<g>
					<path style="fill:#FFFFFF;" d="M68.765,189.93c-0.029,1.734-0.167,3.468-0.374,5.203c-1.597,12.899-7.629,23.962-15.179,34.398
						c-1.232,0.051-2.474,0.092-3.706,0.113c-12.281,0.257-24.809-0.944-36.982-3.653c6.367-9.4,11.276-19.405,12.695-30.857
						c0.207-1.745,0.345-3.469,0.384-5.213c7.964,1.067,15.987,1.508,23.903,1.344C55.961,191.13,62.378,190.669,68.765,189.93z"/>
				</g>
				<g>
					<path style="fill:#19002A;" d="M111.553,195.132c-1.242,9.985-5.126,18.882-10.33,27.225
						c-15.8,3.848-31.788,6.527-48.012,7.173c7.55-10.436,13.583-21.499,15.179-34.398c0.207-1.734,0.345-3.469,0.374-5.203
						c14.401-1.663,28.634-4.741,42.729-8.61C112.076,185.887,112.125,190.504,111.553,195.132z"/>
				</g>
				<g>
					<path style="fill:#FFFFFF;" d="M58.179,152.515c-2.888,0.195-5.776,0.318-8.674,0.38c-12.065,0.246-24.385-0.903-36.361-3.52
						c-1.311-2.124-2.691-4.187-4.13-6.198c-7.412-10.354-16.313-19.641-22.394-30.899c-2.435-4.515-4.386-9.277-5.924-14.213
						c15.958,7.809,33.207,13.104,49.707,15.311c6.052,10.765,14.618,19.785,21.783,29.801
						C54.315,146.163,56.336,149.282,58.179,152.515z"/>
				</g>
				<g>
					<path style="fill:#19002A;" d="M97.616,146.471c-13.011,3.007-26.15,5.182-39.437,6.044c-1.843-3.233-3.864-6.352-5.993-9.338
						c-7.166-10.016-15.731-19.036-21.783-29.801c6.525,0.872,12.942,1.262,19.102,1.139c7.935-0.164,15.82-0.821,23.646-1.888
						c6.082,11.103,14.874,20.308,22.197,30.55C96.118,144.254,96.877,145.352,97.616,146.471z"/>
				</g>
				<g>
					<path style="fill:#FFFFFF;" d="M19.334,73.837c-15.258-2.668-30.152-7.645-43.508-15.064
						c0.414-11.965,2.444-23.869,5.924-35.291c12.508,6.085,26.12,10.19,39.999,12.376C19.176,48.316,18.299,61.143,19.334,73.837z"
						/>
				</g>
				<g>
					<path style="fill:#19002A;" d="M34.986-0.993C28.905,10.532,24.42,23,21.749,35.858C7.87,33.672-5.742,29.567-18.25,23.482
						C-14.78,12.091-9.872,1.173-3.691-8.853C8.738-4.533,21.867-1.937,34.986-0.993z"/>
				</g>
				<g>
					<path style="fill:#FFFFFF;" d="M69.899,420.052c-6.762,0.821-13.553,1.324-20.394,1.467c-6.89,0.144-14.884-0.913-23.558-2.945
						c-5.865-11.042-11.976-21.971-16.323-33.731c-1.38-3.735-2.563-7.522-3.548-11.37c16.431,6.249,31.66,9.913,43.429,9.667
						c0.887-0.021,1.764-0.041,2.652-0.072c0.197,0.595,0.414,1.19,0.631,1.775C57.341,397.127,63.798,408.497,69.899,420.052z"/>
				</g>
				<g>
					<path style="fill:#19002A;" d="M108.922,412.274c-12.883,3.438-25.884,6.188-39.023,7.779
						c-6.101-11.555-12.557-22.925-17.111-35.208c-0.217-0.585-0.434-1.18-0.631-1.775c13.967-0.482,27.757-2.473,41.408-5.439
						c0.72,2.432,1.518,4.833,2.395,7.214C99.479,394.367,104.151,403.346,108.922,412.274z"/>
				</g>
				<g>
					<path style="fill:#FFFFFF;" d="M45.326,344.709c-12.252-0.513-27.234-4.207-43.005-10.087
						c0.601-11.145,2.573-22.227,5.815-32.92c13.543,3.438,27.609,4.967,41.369,4.69c0.158,0,0.325-0.01,0.483-0.01
						C46.657,318.87,45.05,331.831,45.326,344.709z"/>
				</g>
				<g>
					<path style="fill:#19002A;" d="M94.826,300.604c-4.012,12.838-6.19,26.281-6.338,39.703
						c-12.853,2.555-25.844,4.197-38.983,4.464c-1.35,0.031-2.75,0.01-4.179-0.062c-0.276-12.879,1.331-25.839,4.662-38.328
						C65.128,306.032,80.051,303.878,94.826,300.604z"/>
				</g>
				<g>
					<path style="fill:#FFFFFF;" d="M101.223,222.357c-8.644,13.864-20.876,26.24-30.477,39.652
						c-1.133,1.58-2.228,3.191-3.292,4.823c-5.953,0.657-11.937,1.067-17.949,1.19c-8.29,0.164-16.687-0.318-25.026-1.498
						c1.005-1.529,2.031-3.037,3.095-4.515c7.915-11.062,17.624-21.417,25.637-32.479
						C69.436,228.884,85.423,226.205,101.223,222.357z"/>
				</g>
				<g>
					<path style="fill:#19002A;" d="M151.976,206.862c-6.387,18.43-21.281,33.372-33.671,49.288
						c-16.747,4.885-33.671,8.805-50.851,10.683c1.064-1.632,2.159-3.243,3.292-4.823c9.601-13.412,21.833-25.788,30.477-39.652
						C118.315,218.201,135.2,212.67,151.976,206.862z"/>
				</g>
				<g>
					<path style="fill:#FFFFFF;" d="M68.765,189.93c0.335-13.063-4.041-25.942-10.586-37.415
						c13.287-0.862,26.426-3.038,39.437-6.044c6.959,10.488,12.331,22.463,13.878,34.849
						C97.399,185.189,83.166,188.267,68.765,189.93z"/>
				</g>
				<g>
					<path style="fill:#19002A;" d="M151.739,168.564c-13.326,4.628-26.722,9.061-40.245,12.755
						c-1.548-12.386-6.919-24.362-13.878-34.849c12.015-2.781,23.922-6.27,35.76-10.108c1.755,2.237,3.489,4.505,5.145,6.814
						C144.031,150.873,148.762,159.493,151.739,168.564z"/>
				</g>
				<g>
					<path style="fill:#FFFFFF;" d="M133.376,136.363c-11.838,3.838-23.745,7.327-35.76,10.108
						c-0.739-1.118-1.498-2.216-2.267-3.294c-7.324-10.241-16.116-19.446-22.197-30.55c13.228-1.786,26.298-4.71,39.269-8.302
						c1.074,2.719,2.316,5.377,3.706,7.953C120.848,121.021,127.275,128.574,133.376,136.363z"/>
				</g>
				<g>
					<path style="fill:#19002A;" d="M112.421,104.325c-12.972,3.592-26.042,6.516-39.269,8.302
						c-0.069-0.113-0.138-0.236-0.197-0.349c-5.963-11.021-8.979-23.572-10.241-36.152c-0.02-0.236-0.049-0.462-0.069-0.698
						c14.391-1.252,28.614-3.982,42.689-7.594c0.089,2.771,0.276,5.531,0.552,8.292C106.842,85.772,108.843,95.397,112.421,104.325z
						"/>
				</g>
				<g>
					<path style="fill:#FFFFFF;" d="M126.447,451.31c-13.553,4.207-27.205,7.881-41.014,10.457
						c-1.607-8.723-3.716-16.511-6.338-22.75c-2.73-6.486-5.914-12.745-9.196-18.964c13.139-1.591,26.14-4.341,39.023-7.779
						c4.692,8.795,9.472,17.548,13.346,26.743C123.845,442.772,125.234,446.897,126.447,451.31z"/>
				</g>
				<g>
					<path style="fill:#19002A;" d="M165.115,438.267c-12.824,4.515-25.697,9.03-38.668,13.043
						c-1.212-4.413-2.602-8.538-4.179-12.294c-3.874-9.195-8.654-17.948-13.346-26.743c12.488-3.335,24.878-7.317,37.199-11.524
						C152.331,413.3,159.605,425.358,165.115,438.267z"/>
				</g>
				<g>
					<path style="fill:#FFFFFF;" d="M93.565,377.629c-13.652,2.966-27.441,4.957-41.408,5.439
						c-4.337-12.304-6.555-25.296-6.831-38.359c1.429,0.072,2.829,0.092,4.179,0.062c13.139-0.267,26.13-1.909,38.983-4.464
						C88.331,352.94,89.967,365.562,93.565,377.629z"/>
				</g>
				<g>
					<path style="fill:#19002A;" d="M133.987,366.424c-13.366,4.341-26.83,8.25-40.422,11.206
						c-3.598-12.068-5.234-24.69-5.076-37.322c14.756-2.925,29.334-7.06,43.803-11.719
						C131.05,341.231,131.553,354.017,133.987,366.424z"/>
				</g>
				<g>
					<path style="fill:#FFFFFF;" d="M118.305,256.15c-1.508,1.929-2.987,3.889-4.396,5.859
						c-8.329,11.637-14.775,24.762-19.083,38.595c-14.775,3.274-29.698,5.428-44.838,5.777c3.726-14.049,9.63-27.492,17.466-39.549
						C84.635,264.954,101.559,261.034,118.305,256.15z"/>
				</g>
				<g>
					<path style="fill:#19002A;" d="M177.623,236.252c-6.811,8.62-14.243,16.963-20.541,25.757
						c-5.471,7.635-10.123,15.916-13.898,24.618c-15.978,5.398-32.074,10.364-48.357,13.977
						c4.307-13.833,10.754-26.958,19.083-38.595c1.41-1.97,2.888-3.93,4.396-5.859c19.911-5.819,39.565-13.002,59.14-19.836
						L177.623,236.252z"/>
				</g>
				<g>
					<path style="fill:#FFFFFF;" d="M154.726,195.132c-0.503,4.074-1.449,7.973-2.75,11.729
						c-16.776,5.808-33.661,11.339-50.752,15.495c5.204-8.343,9.088-17.24,10.33-27.225c0.572-4.628,0.522-9.246-0.059-13.813
						c13.523-3.694,26.919-8.127,40.245-12.755C154.578,177.143,155.84,186.133,154.726,195.132z"/>
				</g>
				<g>
					<path style="fill:#19002A;" d="M198.243,190.925c-6.979,2.258-13.918,4.618-20.798,7.019
						c-8.467,2.955-16.954,5.972-25.47,8.918c1.301-3.756,2.247-7.655,2.75-11.729c1.114-9-0.148-17.989-2.987-26.568
						c8.595-2.966,17.161-6.024,25.706-9c3.943-1.375,7.895-2.74,11.877-4.064C195.109,166.502,198.785,178.652,198.243,190.925z"/>
				</g>
				<g>
					<path style="fill:#FFFFFF;" d="M105.334,67.834c-14.075,3.612-28.299,6.342-42.689,7.594
						c-1.212-12.879-0.453-25.911,2.08-38.564c15.238-1.478,30.28-4.597,45.173-8.61C106.467,41.122,104.87,54.504,105.334,67.834z"
						/>
				</g>
				<g>
					<path style="fill:#19002A;" d="M158.146,12.84c-5.234,13.248-8.467,27.379-9.423,41.653
						c-14.361,4.926-28.801,9.605-43.389,13.34c-0.463-13.33,1.134-26.712,4.564-39.58C126.131,23.882,142.188,18.423,158.146,12.84
						z"/>
				</g>
				<g>
					<path style="fill:#FFFFFF;" d="M175.888,478.606c-13.977,4.885-27.993,9.933-42.118,14.51c-0.434,0.144-0.857,0.277-1.291,0.41
						c-0.641-14.962-2.602-29.729-6.032-42.217c12.971-4.012,25.844-8.528,38.668-13.043h0.01c0.108,0.246,0.207,0.503,0.315,0.749
						C170.733,451.597,174.232,464.979,175.888,478.606z"/>
				</g>
				<g>
					<path style="fill:#FFFFFF;" d="M146.121,400.75c-12.321,4.207-24.711,8.189-37.199,11.524
						c-4.771-8.928-9.443-17.907-12.962-27.43c-0.877-2.381-1.676-4.782-2.395-7.214c13.592-2.955,27.057-6.865,40.422-11.206
						c1.212,6.26,2.927,12.427,5.145,18.42C141.153,390.293,143.548,395.557,146.121,400.75z"/>
				</g>
				<g>
					<path style="fill:#19002A;" d="M179.575,389.082c-0.71,0.246-1.419,0.493-2.129,0.739
						c-10.409,3.633-20.847,7.358-31.325,10.929c-2.573-5.193-4.968-10.457-6.988-15.906c-2.218-5.993-3.933-12.16-5.145-18.42
						c12.39-4.023,24.701-8.405,36.973-12.715c0.966,10.631,3.253,21.119,6.959,31.135
						C178.441,386.27,178.993,387.676,179.575,389.082z"/>
				</g>
				<g>
					<path style="fill:#FFFFFF;" d="M143.184,286.627c-5.766,13.269-9.472,27.522-10.892,41.961
						c-14.47,4.659-29.048,8.794-43.803,11.719c0.148-13.422,2.326-26.866,6.338-39.703
						C111.11,296.992,127.206,292.025,143.184,286.627z"/>
				</g>
				<g>
					<path style="fill:#19002A;" d="M190.437,270.249c-8.22,13.525-14.075,28.641-17.249,44.301
						c-13.563,4.762-27.185,9.636-40.895,14.038c1.419-14.439,5.125-28.692,10.892-41.961c11.473-3.869,22.877-7.963,34.262-11.935
						C181.753,273.184,186.09,271.696,190.437,270.249z"/>
				</g>
				<g>
					<path style="fill:#FFFFFF;" d="M198.243,190.925c-0.059,1.406-0.177,2.802-0.345,4.207
						c-1.942,15.69-10.458,28.682-20.275,41.119l-0.177,0.062c-19.575,6.834-39.23,14.018-59.14,19.836
						c12.39-15.916,27.283-30.857,33.671-49.288c8.516-2.945,17.003-5.962,25.47-8.918
						C184.326,195.543,191.265,193.183,198.243,190.925z"/>
				</g>
				<g>
					<path style="fill:#19002A;" d="M236.684,195.132c-1.163,9.4-4.682,17.815-9.433,25.737v0.01
						c-16.766,4.228-33.345,9.698-49.629,15.372c9.817-12.437,18.334-25.429,20.275-41.119c0.168-1.406,0.286-2.801,0.345-4.207
						c12.617-4.064,25.381-7.758,38.244-10.621C237.187,185.199,237.295,190.166,236.684,195.132z"/>
				</g>
				<g>
					<path style="fill:#19002A;" d="M187.834,76.126c0.099,1.006,0.217,2.001,0.345,3.007c-3.588,1.211-7.166,2.442-10.734,3.684
						c-8.575,2.986-17.161,6.054-25.775,9.041c-1.242-5.162-2.08-10.447-2.612-15.731c-0.72-7.194-0.818-14.428-0.335-21.632
						c9.61-3.304,19.171-6.722,28.723-10.057c4.416-1.539,8.861-3.068,13.326-4.556C187.884,52.841,186.75,65.227,187.834,76.126z"
						/>
				</g>
				<g>
					<path style="fill:#FFFFFF;" d="M198.529,426.835c-7.077,2.278-14.105,4.669-21.084,7.101c-4.1,1.437-8.201,2.884-12.321,4.331
						h-0.01c-5.51-12.909-12.784-24.967-18.994-37.517c10.478-3.571,20.916-7.296,31.325-10.929c0.71-0.246,1.419-0.493,2.129-0.739
						C184.917,402.125,192.191,414.254,198.529,426.835z"/>
				</g>
				<g>
					<path style="fill:#19002A;" d="M236.221,416.368c-12.676,2.822-25.253,6.465-37.692,10.467
						c-6.338-12.581-13.612-24.711-18.954-37.753c12.784-4.443,25.756-8.723,38.845-12.366c0.779,2.74,1.676,5.449,2.661,8.128
						C225.142,395.824,230.731,406.065,236.221,416.368z"/>
				</g>
				<g>
					<path style="fill:#FFFFFF;" d="M170.96,353.709c-12.272,4.31-24.583,8.692-36.973,12.715
						c-2.435-12.407-2.937-25.193-1.695-37.836c13.711-4.402,27.333-9.277,40.895-14.038
						C170.575,327.439,169.767,340.687,170.96,353.709z"/>
				</g>
				<g>
					<path style="fill:#19002A;" d="M220.312,299.455c-4.189,12.992-6.486,26.63-6.703,40.257v0.01
						c-12.183,3.52-24.257,7.563-36.164,11.719c-2.159,0.749-4.317,1.509-6.486,2.268c-1.193-13.022-0.384-26.27,2.228-39.159
						c1.419-0.493,2.839-0.995,4.258-1.488C191.531,308.146,205.853,303.385,220.312,299.455z"/>
				</g>
				<g>
					<path style="fill:#FFFFFF;" d="M199.012,113.93c-7.245,2.319-14.43,4.772-21.566,7.255c-3.341,1.16-6.673,2.34-10.024,3.509
						c-2.967-3.961-5.756-8.035-8.122-12.417c-3.46-6.393-5.924-13.289-7.629-20.421c8.615-2.986,17.2-6.055,25.775-9.041
						c3.568-1.242,7.146-2.473,10.734-3.684c1.419,11.565,4.416,23.007,9.906,33.146
						C198.381,112.832,198.687,113.386,199.012,113.93z"/>
				</g>
				<g>
					<path style="fill:#19002A;" d="M237.177,103.401c-12.833,2.822-25.568,6.486-38.165,10.529
						c-0.325-0.544-0.631-1.098-0.926-1.652c-5.49-10.139-8.487-21.581-9.906-33.146c13.977-4.731,28.161-9.133,42.463-12.591
						c-0.059,3.304,0.059,6.506,0.365,9.585C231.943,85.433,233.836,94.73,237.177,103.401z"/>
				</g>
				<g>
					<path style="fill:#FFFFFF;" d="M205.784-3.322c-6.663,14.274-11.877,29.072-15.012,43.202
						c-4.465,1.488-8.91,3.017-13.326,4.556c-9.551,3.335-19.112,6.752-28.723,10.057c0.956-14.274,4.189-28.405,9.423-41.653v-0.01
						c6.446-2.247,12.873-4.525,19.299-6.763C186.799,2.804,196.252-0.397,205.784-3.322z"/>
				</g>
				<g>
					<path style="fill:#19002A;" d="M256.339-15.257c-7.501,13.464-13.819,27.728-18.304,41.725
						c-15.928,3.458-31.719,8.22-47.263,13.412c3.134-14.131,8.349-28.928,15.012-43.202
						C222.441-8.453,239.326-12.783,256.339-15.257z"/>
				</g>
				<g>
					<path style="fill:#19002A;" d="M258.901,500.495c-14.667,1.981-29.245,5.367-43.675,9.492
						c1.252-14.49,0.394-29.174-2.513-43.398c13.514-3.951,27.175-7.276,40.915-9.441
						C257.472,471.208,259.246,485.882,258.901,500.495z"/>
				</g>
				<g>
					<path style="fill:#FFFFFF;" d="M253.628,457.149c-13.74,2.165-27.402,5.49-40.915,9.441
						c-1.922-9.461-4.761-18.718-8.496-27.574c-1.745-4.135-3.667-8.179-5.687-12.181c12.439-4.002,25.016-7.645,37.692-10.467
						c3.972,7.43,7.895,14.88,11.168,22.648C249.863,444.906,251.952,450.971,253.628,457.149z"/>
				</g>
				<g>
					<path style="fill:#FFFFFF;" d="M341.471,463.111c-11.552-3.191-23.154-5.962-34.844-7.409
						c-3.499-0.431-6.998-0.749-10.497-0.954c-1.557-5.357-3.41-10.611-5.569-15.731c-4.12-9.78-9.265-19.056-14.243-28.415
						c10.083-0.523,20.196-0.267,30.309,0.985c4.909,0.605,9.807,1.447,14.696,2.453c4.386,8.199,8.792,16.399,12.409,24.978
						C337.006,446.784,339.589,454.86,341.471,463.111z"/>
				</g>
				<g>
					<path style="fill:#19002A;" d="M296.13,454.747c-14.204-0.821-28.397,0.174-42.502,2.401
						c-1.676-6.178-3.765-12.242-6.239-18.133c-3.272-7.768-7.195-15.218-11.168-22.648c13.277-2.976,26.662-5.069,40.097-5.767
						c4.978,9.359,10.123,18.636,14.243,28.415C292.72,444.137,294.573,449.391,296.13,454.747z"/>
				</g>
				<g>
					<path style="fill:#FFFFFF;" d="M218.42,376.716c-13.09,3.643-26.061,7.922-38.845,12.366c-0.582-1.406-1.133-2.812-1.656-4.238
						c-3.706-10.016-5.993-20.503-6.959-31.135c2.169-0.759,4.327-1.519,6.486-2.268c11.907-4.156,23.981-8.199,36.164-11.719
						C213.403,352.242,214.95,364.73,218.42,376.716z"/>
				</g>
				<g>
					<path style="fill:#19002A;" d="M259.444,368.055c-13.77,1.827-27.461,4.895-41.024,8.661
						c-3.47-11.986-5.017-24.474-4.81-36.994v-0.01c14.42-4.177,29.008-7.645,43.675-9.728
						C256.161,342.729,256.822,355.597,259.444,368.055z"/>
				</g>
				<g>
					<path style="fill:#FFFFFF;" d="M238.035,26.468c-4.505,14.007-7.186,27.728-7.393,40.073
						c-14.302,3.458-28.486,7.861-42.463,12.591c-0.128-1.006-0.246-2.001-0.345-3.007c-1.084-10.898,0.049-23.284,2.937-36.245
						C206.316,34.688,222.106,29.927,238.035,26.468z"/>
				</g>
				<g>
					<path style="fill:#19002A;" d="M282.459,20.876c-4.544,13.186-7.521,26.404-8.408,38.739
						c-14.549,0.924-29.048,3.448-43.409,6.927c0.207-12.345,2.888-26.065,7.393-40.073
						C252.751,23.267,267.585,21.173,282.459,20.876z"/>
				</g>
				<g>
					<path style="fill:#FFFFFF;" d="M299.866-16.98c-7.008,12.037-12.962,24.936-17.407,37.856
						c-14.874,0.298-29.708,2.391-44.424,5.593c4.485-13.997,10.803-28.261,18.304-41.725v-0.01
						C270.789-17.381,285.317-18.161,299.866-16.98z"/>
				</g>
				<g>
					<path style="fill:#19002A;" d="M428.979,525.175c-14.125,0.492-28.19-1.796-42.266-5.203
						c2.247-14.551,2.316-29.462,0.286-44.054c14.578,3.52,29.156,5.819,43.784,5.069
						C432.34,495.703,431.759,510.664,428.979,525.175z"/>
				</g>
				<g>
					<path style="fill:#FFFFFF;" d="M440.14-30.295c-0.42,0.44-0.85,0.89-1.25,1.34c-10.11,10.86-18.33,23.65-24.34,37.51
						c-0.01,0.03-0.03,0.07-0.04,0.1c-0.82-0.07-1.65-0.15-2.47-0.24c-0.61-0.06-1.22-0.13-1.83-0.2c-0.26-0.03-0.51-0.06-0.76-0.09
						c-0.57-0.07-1.13-0.14-1.69-0.21c-3.41-0.46-6.82-1.03-10.23-1.69c-0.49-0.09-0.98-0.19-1.47-0.29c-1.57-0.31-3.14-0.64-4.71-1
						c-1.33-0.29-2.66-0.6-3.99-0.92c-0.02-0.01-0.04-0.01-0.06-0.02c-1.36-0.32-2.73-0.66-4.09-1.01c-0.26-0.06-0.53-0.13-0.79-0.2
						c-1.1-0.28-2.2-0.57-3.31-0.87c-1.36-0.36-2.73-0.73-4.09-1.11c6.18-12.13,14.12-23.27,23.56-32.76
						c10.07,1.9,20.15,2.99,30.25,2.65c2.82-0.09,5.64-0.29,8.47-0.63C438.25-30.035,439.19-30.155,440.14-30.295z"/>
				</g>
				<g>
					<line style="fill:none;" x1="440.147" y1="-30.3" x2="440.137" y2="-30.29"/>
				</g>
				<g>
					<path style="fill:#FFFFFF;" d="M430.783,480.987c-14.627,0.749-29.205-1.55-43.784-5.069
						c-1.774-12.694-5.155-25.152-10.103-36.902c-1.607-3.828-3.381-7.573-5.234-11.278c15.83,4.484,31.63,8.302,47.47,9.102
						c0.315,0.718,0.631,1.447,0.936,2.176C425.667,452.326,429.255,466.538,430.783,480.987z"/>
				</g>
				<g>
					<path style="fill:#19002A;" d="M419.132,436.841c-15.84-0.801-31.64-4.618-47.47-9.102
						c-7.126-14.264-15.514-27.902-21.064-42.895c-0.995-2.689-1.883-5.398-2.671-8.148c15.958,4.587,31.827,9.687,47.706,12.909
						C402.376,405.86,412.055,420.719,419.132,436.841z"/>
				</g>
				<g>
					<path style="fill:#FFFFFF;" d="M371.662,427.738c-16.697-4.731-33.444-10.211-50.338-13.7
						c-5.086-9.523-10.143-19.046-13.898-29.195c-2.149-5.808-3.824-11.781-5.027-17.845c1.409,0.133,2.819,0.287,4.228,0.462
						c13.868,1.714,27.609,5.295,41.3,9.236c0.788,2.75,1.676,5.459,2.671,8.148C356.148,399.836,364.536,413.474,371.662,427.738z"
						/>
				</g>
				<g>
					<path style="fill:#19002A;" d="M347.927,376.696c-13.691-3.941-27.431-7.522-41.3-9.236c-1.409-0.174-2.819-0.328-4.228-0.462
						c-2.543-12.622-3.085-25.655-1.804-38.533c2.011,0.164,4.021,0.38,6.032,0.626c12.272,1.519,24.445,4.495,36.568,7.881
						C342.703,350.395,344.211,363.848,347.927,376.696z"/>
				</g>
				<g>
					<path style="fill:#FFFFFF;" d="M395.634,389.605c-15.879-3.222-31.748-8.322-47.706-12.909
						c-3.716-12.848-5.224-26.301-4.731-39.724c14.479,4.054,28.88,8.712,43.281,12.201c0.67,12.181,3.056,24.228,7.284,35.67
						C394.352,386.444,394.983,388.035,395.634,389.605z"/>
				</g>
				<g>
					<path style="fill:#19002A;" d="M386.477,349.173c-14.401-3.489-28.801-8.148-43.281-12.201
						c0.443-12.386,2.602-24.741,6.318-36.573c13.435,3.899,26.8,8.086,40.176,11.165
						C386.891,323.898,385.767,336.603,386.477,349.173z"/>
				</g>
				<g>
					<path style="fill:#FFFFFF;" d="M302.399,366.998c-14.351-1.396-28.693-0.841-42.956,1.057
						c-2.622-12.458-3.282-25.326-2.159-38.072c14.381-2.042,28.841-2.76,43.311-1.519
						C299.314,341.344,299.856,354.376,302.399,366.998z"/>
				</g>
				<g>
					<path style="fill:#19002A;" d="M309.624,291.112c-4.702,11.935-7.757,24.567-9.029,37.353
						c-14.47-1.242-28.93-0.523-43.311,1.519c1.183-13.535,4.396-26.917,9.413-39.508v-0.01c13.267-1.324,26.603-1.406,39.93,0.246
						C307.623,290.835,308.629,290.968,309.624,291.112z"/>
				</g>
				<g>
					<path style="fill:#FFFFFF;" d="M227.251,220.879c-8.674,14.469-21.448,27.245-31.384,41.13
						c-1.912,2.668-3.726,5.418-5.431,8.24c-4.347,1.447-8.684,2.935-12.991,4.443c-11.385,3.971-22.789,8.066-34.262,11.935
						c3.775-8.702,8.427-16.983,13.898-24.618c6.298-8.794,13.73-17.137,20.541-25.757
						C193.906,230.577,210.485,225.107,227.251,220.879z"/>
				</g>
				<g>
					<path style="fill:#19002A;" d="M274.574,213.08c-7.146,15.413-19.773,28.559-30.615,42.402v0.01
						c-18.057,3.53-35.938,8.866-53.522,14.757c1.705-2.822,3.519-5.572,5.431-8.24c9.936-13.884,22.71-26.66,31.384-41.13v-0.01
						C242.894,216.929,258.704,214.045,274.574,213.08z"/>
				</g>
				<g>
					<path style="fill:#FFFFFF;" d="M266.698,290.475c-5.017,12.591-8.23,25.973-9.413,39.508
						c-14.667,2.083-29.255,5.552-43.675,9.728c0.217-13.628,2.514-27.266,6.703-40.257v-0.01
						C235.64,295.268,251.124,292.015,266.698,290.475z"/>
				</g>
				<g>
					<path style="fill:#FFFFFF;" d="M243.959,255.493c-1.705,2.155-3.341,4.32-4.918,6.516
						c-8.102,11.309-14.42,24.033-18.728,37.435v0.01c-14.46,3.93-28.782,8.692-42.867,13.607c-1.419,0.493-2.839,0.995-4.258,1.488
						c3.174-15.66,9.029-30.775,17.249-44.301C208.021,264.359,225.901,259.023,243.959,255.493z"/>
				</g>
				<g>
					<path style="fill:#19002A;" d="M290.581,251.152c-2.908,3.571-5.746,7.173-8.378,10.857
						c-6.269,8.753-11.473,18.348-15.505,28.456v0.01c-15.574,1.539-31.059,4.792-46.386,8.969
						c4.307-13.402,10.626-26.127,18.728-37.435c1.577-2.196,3.213-4.361,4.918-6.516v-0.01
						C259.404,252.465,274.978,250.752,290.581,251.152z"/>
				</g>
				<g>
					<path style="fill:#FFFFFF;" d="M349.514,300.399c-3.716,11.832-5.875,24.187-6.318,36.573
						c-12.124-3.386-24.297-6.362-36.568-7.881c-2.011-0.246-4.022-0.462-6.032-0.626c1.271-12.786,4.327-25.419,9.029-37.353
						C323.009,293.02,336.287,296.571,349.514,300.399z"/>
				</g>
				<g>
					<path style="fill:#19002A;" d="M365.354,266.678c-6.762,10.375-12.094,21.786-15.84,33.721
						c-13.228-3.828-26.505-7.378-39.89-9.287c4.061-10.344,9.344-20.164,15.751-29.103c1.301-1.816,2.651-3.622,4.051-5.408
						C341.461,259.505,353.417,263.189,365.354,266.678z"/>
				</g>
				<g>
					<path style="fill:#FFFFFF;" d="M403.066,275.842c-6.052,11.165-10.576,23.243-13.376,35.722
						c-13.376-3.079-26.741-7.265-40.176-11.165c3.746-11.935,9.078-23.346,15.84-33.721
						C377.941,270.352,390.499,273.79,403.066,275.842z"/>
				</g>
				<g>
					<path style="fill:#19002A;" d="M429.827,239.279c-6.111,7.563-12.557,14.972-18.116,22.73
						c-3.154,4.413-6.042,9.041-8.644,13.833c-12.567-2.052-25.125-5.49-37.712-9.164c1.035-1.58,2.099-3.14,3.194-4.669
						c6.624-9.246,14.499-17.999,21.576-27.091C403.342,237.935,416.56,239.843,429.827,239.279z"/>
				</g>
				<g>
					<path style="fill:#FFFFFF;" d="M329.426,256.601c-1.4,1.786-2.75,3.592-4.051,5.408c-6.407,8.938-11.69,18.759-15.751,29.103
						c-0.995-0.144-2.001-0.277-2.996-0.4c-13.326-1.652-26.662-1.57-39.93-0.246c4.031-10.108,9.236-19.703,15.505-28.456
						c2.632-3.684,5.47-7.286,8.378-10.857c5.342,0.133,10.694,0.513,16.047,1.18C314.257,253.276,321.856,254.785,329.426,256.601z
						"/>
				</g>
				<g>
					<path style="fill:#19002A;" d="M354.147,225.005c-7.254,10.949-16.569,21.047-24.721,31.596
						c-7.57-1.816-15.169-3.325-22.799-4.269c-5.352-0.667-10.704-1.047-16.047-1.18c9.393-11.565,19.506-22.874,25.992-35.66
						C329.17,217.801,341.678,221.341,354.147,225.005z"/>
				</g>
				<g>
					<path style="fill:#FFFFFF;" d="M316.573,215.492c-6.486,12.786-16.599,24.095-25.992,35.66
						c-15.603-0.4-31.177,1.314-46.622,4.331c10.842-13.843,23.469-26.989,30.615-42.402c10.665-0.657,21.36-0.441,32.054,0.883
						C309.949,214.374,313.261,214.897,316.573,215.492z"/>
				</g>
				<g>
					<path style="fill:#19002A;" d="M323.019,195.132c-0.907,7.296-3.223,14.018-6.446,20.36c-3.312-0.595-6.624-1.118-9.945-1.529
						c-10.694-1.324-21.389-1.539-32.054-0.883c2.612-5.634,4.485-11.565,5.273-17.948c0.858-6.947,0.306-13.884-1.291-20.626
						c9.344-0.39,18.708-0.082,28.072,1.077c5.313,0.657,10.606,1.591,15.879,2.709
						C323.483,183.834,323.719,189.478,323.019,195.132z"/>
				</g>
				<g>
					<path style="fill:#19002A;" d="M408.566,199.884c-2.789,13.063-10.064,24.28-18.442,35.034
						c-11.976-2.74-23.952-6.383-35.977-9.913c6.052-9.113,10.675-18.82,12.045-29.872c0.197-1.621,0.325-3.232,0.375-4.854
						C380.583,194.352,394.559,198.098,408.566,199.884z"/>
				</g>
				<g>
					<path style="fill:#FFFFFF;" d="M452.192,197.39c-2.642,15.947-12.035,29.123-22.365,41.889
						c-13.267,0.564-26.485-1.344-39.703-4.361c8.378-10.754,15.652-21.971,18.442-35.034c12.301,1.591,24.622,1.662,37.002-0.862
						C447.796,198.57,450.003,198.026,452.192,197.39z"/>
				</g>
				<g>
					<path style="fill:#19002A;" d="M452.527,195.132c-0.089,0.759-0.197,1.508-0.335,2.258c-2.188,0.636-4.396,1.18-6.624,1.632
						c-12.38,2.524-24.701,2.453-37.002,0.862c0.325-1.56,0.601-3.14,0.798-4.751c1.459-11.77-1.163-23.531-6.022-34.377
						c14.046,2.268,28.092,2.771,42.226-0.113c0.276-0.051,0.542-0.113,0.818-0.174
						C451.324,171.397,454.005,183.249,452.527,195.132z"/>
				</g>
				<g>
					<path style="fill:#FFFFFF;" d="M366.566,190.279c-0.049,1.621-0.177,3.232-0.375,4.854c-1.37,11.052-5.993,20.76-12.045,29.872
						c-12.469-3.663-24.977-7.204-37.574-9.513c3.223-6.342,5.539-13.063,6.446-20.36c0.7-5.654,0.463-11.298-0.513-16.84
						C337.282,181.423,351.949,186.03,366.566,190.279z"/>
				</g>
				<g>
					<path style="fill:#19002A;" d="M366.566,190.279c-14.618-4.248-29.284-8.856-44.06-11.986
						c-2.218-12.622-8.25-24.711-15.692-35.116c-1.577-2.196-3.213-4.341-4.879-6.475c1.567,0.144,3.125,0.318,4.692,0.513
						c15.662,1.939,31.177,6.249,46.612,10.775C361.332,160.652,367.03,175.358,366.566,190.279z"/>
				</g>
				<g>
					<path style="fill:#FFFFFF;" d="M279.847,195.132c-0.788,6.383-2.661,12.314-5.273,17.948
						c-15.869,0.965-31.679,3.848-47.322,7.789c4.751-7.922,8.27-16.337,9.433-25.737c0.611-4.967,0.503-9.934-0.197-14.828
						c13.937-3.109,27.983-5.234,42.068-5.798C280.152,181.248,280.704,188.185,279.847,195.132z"/>
				</g>
				<g>
					<path style="fill:#FFFFFF;" d="M198.243,190.925c0.542-12.273-3.135-24.423-8.92-35.424
						c10.813-3.643,21.744-7.081,32.764-10.026c7.067,10.436,12.626,22.402,14.401,34.829
						C223.624,183.167,210.86,186.861,198.243,190.925z"/>
				</g>
				<g>
					<path style="fill:#19002A;" d="M278.556,174.506c-14.085,0.564-28.131,2.689-42.068,5.798
						c-1.774-12.427-7.333-24.393-14.401-34.829c12.419-3.325,24.938-6.034,37.524-7.686c1.37,1.775,2.721,3.561,4.031,5.388
						C270.335,152.535,275.894,163.259,278.556,174.506z"/>
				</g>
				<g>
					<path style="fill:#FFFFFF;" d="M322.507,178.293c-5.273-1.118-10.566-2.052-15.879-2.709
						c-9.364-1.16-18.728-1.467-28.072-1.077c-2.661-11.247-8.221-21.971-14.913-31.329c-1.311-1.827-2.661-3.612-4.031-5.388
						c14.056-1.857,28.19-2.412,42.325-1.088c1.666,2.135,3.302,4.279,4.879,6.475C314.257,153.582,320.289,165.671,322.507,178.293
						z"/>
				</g>
				<g>
					<path style="fill:#19002A;" d="M301.936,136.701c-14.134-1.324-28.269-0.77-42.325,1.088
						c-6.426-8.302-13.346-16.234-18.363-25.511c-1.547-2.863-2.898-5.829-4.071-8.877c13.661-3.017,27.421-5.08,41.221-5.644
						c1.548,5.039,3.529,9.913,6.023,14.521C289.211,121.144,295.746,128.789,301.936,136.701z"/>
				</g>
				<g>
					<path style="fill:#FFFFFF;" d="M409.364,195.132c-0.197,1.611-0.473,3.191-0.798,4.751
						c-14.006-1.786-27.983-5.531-41.999-9.605c0.463-14.921-5.234-29.626-13.326-42.289c16.756,4.915,33.424,10.077,50.102,12.766
						C408.201,171.602,410.823,183.362,409.364,195.132z"/>
				</g>
				<g>
					<path style="fill:#19002A;" d="M403.342,160.755c-16.678-2.689-33.345-7.85-50.102-12.766
						c-1.045-1.642-2.129-3.243-3.253-4.813c-7.412-10.354-16.313-19.641-22.394-30.899c-1.853-3.417-3.42-6.988-4.741-10.662
						c16.638,3.551,33.128,8.959,49.579,13.587v0.01c5.973,9.975,13.967,18.523,20.719,27.964
						C397.053,148.626,400.562,154.547,403.342,160.755z"/>
				</g>
				<g>
					<path style="fill:#FFFFFF;" d="M446.386,160.468c-0.276,0.062-0.542,0.123-0.818,0.174c-14.134,2.884-28.18,2.381-42.226,0.113
						c-2.78-6.208-6.289-12.13-10.192-17.579c-6.752-9.441-14.746-17.989-20.719-27.964c16.421,4.628,32.803,8.487,49.244,8.979
						c4.761,6.403,9.995,12.489,14.647,18.985C440.166,148.544,443.626,154.362,446.386,160.468z"/>
				</g>
				<g>
					<path style="fill:#19002A;" d="M372.43,115.215v-0.01c-0.58-0.97-1.13-1.93-1.67-2.93c-5.96-11.02-8.98-23.57-10.25-36.15
						c-0.09-0.94-0.17-1.88-0.24-2.82c14.86,4.38,29.67,8.66,44.49,10.93c1.62,9.81,4.49,19.39,9.17,28.04
						c2.26,4.2,4.93,8.11,7.75,11.92C405.23,123.695,388.85,119.845,372.43,115.215z"/>
				</g>
				<g>
					<path style="fill:#FFFFFF;" d="M353.24,147.989c-15.436-4.525-30.95-8.835-46.612-10.775c-1.567-0.195-3.125-0.369-4.692-0.513
						c-6.19-7.912-12.725-15.557-17.515-24.423c-2.494-4.607-4.475-9.482-6.023-14.521c9.394-0.39,18.816-0.092,28.23,1.077
						c5.421,0.677,10.833,1.632,16.224,2.781c1.321,3.674,2.888,7.245,4.741,10.662c6.082,11.257,14.982,20.544,22.394,30.899
						C351.111,144.747,352.195,146.348,353.24,147.989z"/>
				</g>
				<g>
					<path style="fill:#FFFFFF;" d="M278.398,97.757c-13.799,0.564-27.559,2.627-41.221,5.644
						c-3.341-8.671-5.234-17.968-6.17-27.276c-0.306-3.079-0.424-6.28-0.365-9.585c14.361-3.479,28.86-6.003,43.409-6.927
						c-0.424,5.726-0.394,11.257,0.128,16.511C274.909,83.442,276.239,90.759,278.398,97.757z"/>
				</g>
				<g>
					<path style="fill:#19002A;" d="M322.852,101.616c-5.392-1.149-10.803-2.104-16.224-2.781c-9.413-1.17-18.836-1.467-28.23-1.077
						c-2.159-6.999-3.489-14.315-4.219-21.632c-0.522-5.254-0.552-10.785-0.128-16.511c10.833-0.698,21.704-0.503,32.576,0.841
						c3.371,0.421,6.742,0.944,10.103,1.56c-0.049,4.71,0.148,9.42,0.621,14.11C318.219,84.797,319.924,93.458,322.852,101.616z"/>
				</g>
				<g>
					<path style="fill:#FFFFFF;" d="M372.431,115.203c-16.451-4.628-32.941-10.036-49.579-13.587
						c-2.928-8.158-4.633-16.819-5.5-25.49c-0.473-4.69-0.67-9.4-0.621-14.11c14.608,2.678,29.097,7.029,43.537,11.288
						c0.069,0.944,0.148,1.878,0.246,2.822c1.262,12.581,4.288,25.131,10.241,36.152
						C371.298,113.273,371.85,114.238,372.431,115.203z"/>
				</g>
				<g>
					<path style="fill:#19002A;" d="M360.27,73.305c-14.44-4.26-28.93-8.61-43.54-11.29c0.12-12.61,2.06-25.19,5.61-37.26
						c13.55,2.86,27.02,6.98,40.43,10.92C360.19,48.005,359.29,60.725,360.27,73.305z"/>
				</g>
				<g>
					<path style="fill:#FFFFFF;" d="M481.63,145.705c-30.45-6.64-59.95-21.51-59.95-21.51c-2.82-3.81-5.49-7.72-7.75-11.92
						c-4.68-8.65-7.55-18.23-9.17-28.04c0-0.01,0-0.03-0.01-0.04c15.89,9.47,43.51,8.74,43.51,8.74c1.58,5.08,3.59,9.97,6.09,14.62
						c6.25,11.57,15.41,21.13,23.03,31.77C478.86,141.395,480.28,143.515,481.63,145.705z"/>
				</g>
				<g>
					<path style="fill:#FFFFFF;" d="M404.76,84.235c-14.82-2.27-29.63-6.55-44.49-10.93c-0.98-12.58-0.08-25.3,2.5-37.63
						c1.73,0.51,3.46,1.01,5.19,1.51c1.36,0.4,2.73,0.79,4.09,1.17c2.09,0.59,4.19,1.17,6.28,1.73c1.03,0.28,2.07,0.55,3.11,0.82
						c3.11,0.81,6.22,1.57,9.33,2.27c0.77,0.18,1.55,0.35,2.33,0.51c0.78,0.18,1.56,0.34,2.33,0.49c0.51,0.11,1.01,0.21,1.51,0.3
						c0.55,0.11,1.11,0.22,1.66,0.32c0.5,0.1,0.99,0.2,1.49,0.28c1.38,0.25,2.75,0.48,4.13,0.7c-1.33,10.04-1.54,20.25-0.53,30.35
						c0.26,2.7,0.62,5.39,1.06,8.07C404.76,84.205,404.76,84.225,404.76,84.235z"/>
				</g>
				<g>
					<path style="fill:#FFFFFF;" d="M375.023,0.803c-5.579,10.96-9.729,22.74-12.252,34.87
						c-13.415-3.941-26.879-8.056-40.432-10.919c3.598-12.232,8.851-23.931,15.573-34.603
						C350.332-6.524,362.683-2.604,375.023,0.803z"/>
				</g>
				<g>
					<path style="fill:#FFFFFF;" d="M449.34,16.235c-3.58,11.74-5.66,23.99-6.09,36.29c-0.01,0.15-0.01,0.3-0.01,0.45
						c0-0.02-0.01-0.04-0.02-0.05c-0.57-1.13-2.79-1.92-3.88-2.59c-6.07-3.77-33.79-4.7-35.12-4.58c0.99-7.53,2.61-14.99,4.83-22.23
						c1.53-5.07,3.37-10.03,5.46-14.87c0.01-0.03,0.03-0.07,0.04-0.1C424.32,14.415,438.17,10.795,449.34,16.235z"/>
				</g>
				<g>
					<path style="fill:#19002A;" d="M414.51,8.655c-2.09,4.84-3.93,9.8-5.46,14.87c-2.22,7.24-3.84,14.7-4.83,22.23
						c0,0.01,0,0.01,0,0.02c-0.02,0-0.03-0.01-0.05-0.01c-1.36-0.22-2.72-0.44-4.08-0.69c-0.5-0.08-0.99-0.18-1.49-0.28
						c-0.55-0.1-1.11-0.21-1.66-0.32c-0.5-0.09-1-0.19-1.51-0.3c-0.78-0.16-1.55-0.32-2.33-0.49c-0.78-0.16-1.55-0.34-2.33-0.51
						c-3.11-0.7-6.22-1.46-9.33-2.27c-1.04-0.27-2.07-0.54-3.11-0.82c-2.09-0.56-4.19-1.14-6.28-1.73
						c-1.36-0.38-2.73-0.77-4.09-1.17c-1.73-0.5-3.46-1-5.19-1.51c2.52-12.13,6.67-23.91,12.25-34.87c1.36,0.38,2.73,0.75,4.09,1.11
						c1.11,0.3,2.21,0.59,3.31,0.87c0.26,0.07,0.53,0.14,0.79,0.2c1.36,0.35,2.73,0.69,4.09,1.01c0.02,0.01,0.04,0.01,0.06,0.02
						c1.33,0.32,2.66,0.63,3.99,0.92c1.57,0.36,3.14,0.69,4.71,1c0.49,0.1,0.98,0.2,1.47,0.29c3.41,0.66,6.82,1.23,10.23,1.69
						c0.56,0.07,1.12,0.14,1.69,0.21c0.25,0.03,0.5,0.06,0.76,0.09c0.61,0.07,1.22,0.14,1.83,0.2
						C412.86,8.505,413.69,8.585,414.51,8.655z"/>
				</g>
				<g>
					<path style="fill:#FFFFFF;" d="M390.124,234.918c-7.077,9.092-14.953,17.845-21.576,27.091
						c-1.094,1.529-2.159,3.089-3.194,4.669c-11.937-3.489-23.893-7.173-35.928-10.077c8.152-10.549,17.466-20.647,24.721-31.596
						C366.172,228.535,378.148,232.178,390.124,234.918z"/>
				</g>
			</g>
		</g>
	</g>
</g>
</svg>
